<?xml version="1.0" encoding="UTF-8" standalone="no"?>
<!-- Created with Inkscape (http://www.inkscape.org/) -->

<svg
   xmlns:osb="http://www.openswatchbook.org/uri/2009/osb"
   xmlns:dc="http://purl.org/dc/elements/1.1/"
   xmlns:cc="http://creativecommons.org/ns#"
   xmlns:rdf="http://www.w3.org/1999/02/22-rdf-syntax-ns#"
   xmlns:svg="http://www.w3.org/2000/svg"
   xmlns="http://www.w3.org/2000/svg"
   xmlns:xlink="http://www.w3.org/1999/xlink"
   xmlns:sodipodi="http://sodipodi.sourceforge.net/DTD/sodipodi-0.dtd"
   xmlns:inkscape="http://www.inkscape.org/namespaces/inkscape"
   id="svg2"
   version="1.1"
   inkscape:version="0.91 r13725"
   xml:space="preserve"
   width="720"
   height="900"
   viewBox="0 0 720 900"
   sodipodi:docname="meriam.svg"><sodipodi:namedview
     pagecolor="#ffffff"
     bordercolor="#666666"
     borderopacity="1"
     objecttolerance="10"
     gridtolerance="10"
     guidetolerance="10"
     inkscape:pageopacity="0"
     inkscape:pageshadow="2"
     inkscape:window-width="1888"
     inkscape:window-height="1057"
     id="namedview4"
     showgrid="false"
     inkscape:zoom="2.0977778"
     inkscape:cx="424.24451"
     inkscape:cy="583.56111"
     inkscape:window-x="28"
     inkscape:window-y="-4"
     inkscape:window-maximized="1"
     inkscape:current-layer="g10" /><metadata
     id="metadata8"><rdf:RDF><cc:Work
         rdf:about=""><dc:format>image/svg+xml</dc:format><dc:type
           rdf:resource="http://purl.org/dc/dcmitype/StillImage" /><dc:title /></cc:Work></rdf:RDF></metadata><defs
     id="defs6"><linearGradient
       inkscape:collect="always"
       id="linearGradient9911"><stop
         style="stop-color:#f1fbf6;stop-opacity:1"
         offset="0"
         id="stop9913" /><stop
         style="stop-color:#7ac689;stop-opacity:1"
         offset="1"
         id="stop9915" /></linearGradient><linearGradient
       osb:paint="solid"
       id="linearGradient7987"><stop
         id="stop7989"
         offset="0"
         style="stop-color:#000000;stop-opacity:1;" /></linearGradient><clipPath
       clipPathUnits="userSpaceOnUse"
       id="clipPath16"><path
         d="M 29,775.5 632,775.5 632,28.5 29,28.5 29,775.5 Z"
         id="path18"
         inkscape:connector-curvature="0" /></clipPath><clipPath
       clipPathUnits="userSpaceOnUse"
       id="clipPath22"><path
         d="M 0.029999,804.03 661.05,804.03 661.05,0.03 0.029999,0.03 0.029999,804.03 Z"
         id="path24"
         inkscape:connector-curvature="0" /></clipPath><clipPath
       clipPathUnits="userSpaceOnUse"
       id="clipPath530"><path
         d="M 112.072,698.272 411.072,698.272 411.072,517.272 112.072,517.272 112.072,698.272"
         id="path532"
         inkscape:connector-curvature="0" /></clipPath><clipPath
       clipPathUnits="userSpaceOnUse"
       id="clipPath536"><path
         d="M 112.072,698.272 112.072,517.731 410.933,517.731 410.933,698.272"
         id="path538"
         inkscape:connector-curvature="0" /></clipPath><clipPath
       clipPathUnits="userSpaceOnUse"
       id="clipPath542"><path
         d="M 105.5,697.5 417.5,697.5 417.5,518.5 105.5,518.5 105.5,697.5 Z"
         id="path544"
         inkscape:connector-curvature="0"
         style="clip-rule:evenodd" /></clipPath><clipPath
       clipPathUnits="userSpaceOnUse"
       id="clipPath548"><path
         d="M 29,775.5 632,775.5 632,28.5 29,28.5 29,775.5 Z"
         id="path550"
         inkscape:connector-curvature="0" /></clipPath><clipPath
       clipPathUnits="userSpaceOnUse"
       id="clipPath554"><path
         d="M 0.029999,804.03 661.05,804.03 661.05,0.03 0.029999,0.03 0.029999,804.03 Z"
         id="path556"
         inkscape:connector-curvature="0" /></clipPath><clipPath
       clipPathUnits="userSpaceOnUse"
       id="clipPath922"><path
         d="M 29,775.5 632,775.5 632,28.5 29,28.5 29,775.5 Z"
         id="path924"
         inkscape:connector-curvature="0" /></clipPath><clipPath
       clipPathUnits="userSpaceOnUse"
       id="clipPath928"><path
         d="M 0.029999,804.03 661.05,804.03 661.05,0.03 0.029999,0.03 0.029999,804.03 Z"
         id="path930"
         inkscape:connector-curvature="0" /></clipPath><clipPath
       clipPathUnits="userSpaceOnUse"
       id="clipPath940"><path
         d="M 436.61,409.372 578.61,409.372 578.61,295.372 436.61,295.372 436.61,409.372"
         id="path942"
         inkscape:connector-curvature="0" /></clipPath><clipPath
       clipPathUnits="userSpaceOnUse"
       id="clipPath946"><path
         d="M 436.61,409.372 436.61,295.131 578.391,295.131 578.391,409.372"
         id="path948"
         inkscape:connector-curvature="0" /></clipPath><clipPath
       clipPathUnits="userSpaceOnUse"
       id="clipPath952"><path
         d="M 429.5,408.75 585.5,408.75 585.5,295.75 429.5,295.75 429.5,408.75 Z"
         id="path954"
         inkscape:connector-curvature="0"
         style="clip-rule:evenodd" /></clipPath><clipPath
       clipPathUnits="userSpaceOnUse"
       id="clipPath958"><path
         d="M 29,775.5 632,775.5 632,28.5 29,28.5 29,775.5 Z"
         id="path960"
         inkscape:connector-curvature="0" /></clipPath><clipPath
       clipPathUnits="userSpaceOnUse"
       id="clipPath964"><path
         d="M 0.029999,804.03 661.05,804.03 661.05,0.03 0.029999,0.03 0.029999,804.03 Z"
         id="path966"
         inkscape:connector-curvature="0" /></clipPath><clipPath
       clipPathUnits="userSpaceOnUse"
       id="clipPath976"><path
         d="M 467.11,327.596 C 462.773,329.341 457.577,332.281 449.416,339.585 437.5,350.252 431.25,376.252 450.416,379.252 477.284,383.457 485.17,380 497.795,370.958 497.797,370.956 497.793,370.959 497.795,370.958 491.178,375.696 476.5,370.002 471.791,365.627 466.957,361.135 468.125,357.294 465.791,349.96 463.458,342.627 457.443,332.929 467.11,327.596"
         id="path978"
         inkscape:connector-curvature="0" /></clipPath><clipPath
       clipPathUnits="userSpaceOnUse"
       id="clipPath982"><path
         d="M 436.61,409.372 578.61,409.372 578.61,295.372 436.61,295.372 436.61,409.372"
         id="path984"
         inkscape:connector-curvature="0" /></clipPath><clipPath
       clipPathUnits="userSpaceOnUse"
       id="clipPath988"><path
         d="M 436.61,409.372 436.61,295.131 578.391,295.131 578.391,409.372"
         id="path990"
         inkscape:connector-curvature="0" /></clipPath><clipPath
       clipPathUnits="userSpaceOnUse"
       id="clipPath994"><path
         d="M 429.5,408.75 585.5,408.75 585.5,295.75 429.5,295.75 429.5,408.75 Z"
         id="path996"
         inkscape:connector-curvature="0"
         style="clip-rule:evenodd" /></clipPath><clipPath
       clipPathUnits="userSpaceOnUse"
       id="clipPath1000"><path
         d="M 29,775.5 632,775.5 632,28.5 29,28.5 29,775.5 Z"
         id="path1002"
         inkscape:connector-curvature="0" /></clipPath><clipPath
       clipPathUnits="userSpaceOnUse"
       id="clipPath1006"><path
         d="M 0.029999,804.03 661.05,804.03 661.05,0.03 0.029999,0.03 0.029999,804.03 Z"
         id="path1008"
         inkscape:connector-curvature="0" /></clipPath><clipPath
       clipPathUnits="userSpaceOnUse"
       id="clipPath1094"><path
         d="M 436.61,409.372 578.61,409.372 578.61,295.372 436.61,295.372 436.61,409.372"
         id="path1096"
         inkscape:connector-curvature="0" /></clipPath><clipPath
       clipPathUnits="userSpaceOnUse"
       id="clipPath1100"><path
         d="M 436.61,409.372 436.61,295.131 578.391,295.131 578.391,409.372"
         id="path1102"
         inkscape:connector-curvature="0" /></clipPath><clipPath
       clipPathUnits="userSpaceOnUse"
       id="clipPath1106"><path
         d="M 429.5,408.75 585.5,408.75 585.5,295.75 429.5,295.75 429.5,408.75 Z"
         id="path1108"
         inkscape:connector-curvature="0"
         style="clip-rule:evenodd" /></clipPath><clipPath
       clipPathUnits="userSpaceOnUse"
       id="clipPath1112"><path
         d="M 29,775.5 632,775.5 632,28.5 29,28.5 29,775.5 Z"
         id="path1114"
         inkscape:connector-curvature="0" /></clipPath><clipPath
       clipPathUnits="userSpaceOnUse"
       id="clipPath1118"><path
         d="M 0.029999,804.03 661.05,804.03 661.05,0.03 0.029999,0.03 0.029999,804.03 Z"
         id="path1120"
         inkscape:connector-curvature="0" /></clipPath><clipPath
       clipPathUnits="userSpaceOnUse"
       id="clipPath1224"><path
         d="M 497.791,370.96 C 491.125,375.627 476.5,370.002 471.791,365.627 466.957,361.135 468.125,357.294 465.791,349.96 463.458,342.627 457.458,332.96 467.125,327.627 474.444,323.588 493.125,329.294 500.125,343.96 507.125,358.627 501.887,368.093 497.791,370.96"
         id="path1226"
         inkscape:connector-curvature="0" /></clipPath><clipPath
       clipPathUnits="userSpaceOnUse"
       id="clipPath1312"><path
         d="M 436.61,409.372 578.61,409.372 578.61,295.372 436.61,295.372 436.61,409.372"
         id="path1314"
         inkscape:connector-curvature="0" /></clipPath><clipPath
       clipPathUnits="userSpaceOnUse"
       id="clipPath1318"><path
         d="M 436.61,409.372 436.61,295.131 578.391,295.131 578.391,409.372"
         id="path1320"
         inkscape:connector-curvature="0" /></clipPath><clipPath
       clipPathUnits="userSpaceOnUse"
       id="clipPath1324"><path
         d="M 429.5,408.75 585.5,408.75 585.5,295.75 429.5,295.75 429.5,408.75 Z"
         id="path1326"
         inkscape:connector-curvature="0"
         style="clip-rule:evenodd" /></clipPath><clipPath
       clipPathUnits="userSpaceOnUse"
       id="clipPath1330"><path
         d="M 29,775.5 632,775.5 632,28.5 29,28.5 29,775.5 Z"
         id="path1332"
         inkscape:connector-curvature="0" /></clipPath><clipPath
       clipPathUnits="userSpaceOnUse"
       id="clipPath1336"><path
         d="M 0.029999,804.03 661.05,804.03 661.05,0.03 0.029999,0.03 0.029999,804.03 Z"
         id="path1338"
         inkscape:connector-curvature="0" /></clipPath><clipPath
       clipPathUnits="userSpaceOnUse"
       id="clipPath1346"><path
         d="M 465.791,349.96 C 468.125,357.294 466.957,361.135 471.791,365.627 476.5,370.002 491.178,375.696 497.795,370.958 493.285,374.188 489.377,376.701 484.995,378.411 L 451.25,361.252 451.25,337.977 C 458.369,331.842 463.108,329.206 467.11,327.596 457.443,332.929 463.458,342.627 465.791,349.96"
         id="path1348"
         inkscape:connector-curvature="0" /></clipPath><clipPath
       clipPathUnits="userSpaceOnUse"
       id="clipPath1378"><path
         d="M 436.61,409.372 578.61,409.372 578.61,295.372 436.61,295.372 436.61,409.372"
         id="path1380"
         inkscape:connector-curvature="0" /></clipPath><clipPath
       clipPathUnits="userSpaceOnUse"
       id="clipPath1384"><path
         d="M 436.61,409.372 436.61,295.131 578.391,295.131 578.391,409.372"
         id="path1386"
         inkscape:connector-curvature="0" /></clipPath><clipPath
       clipPathUnits="userSpaceOnUse"
       id="clipPath1390"><path
         d="M 429.5,408.75 585.5,408.75 585.5,295.75 429.5,295.75 429.5,408.75 Z"
         id="path1392"
         inkscape:connector-curvature="0"
         style="clip-rule:evenodd" /></clipPath><clipPath
       clipPathUnits="userSpaceOnUse"
       id="clipPath1396"><path
         d="M 29,775.5 632,775.5 632,28.5 29,28.5 29,775.5 Z"
         id="path1398"
         inkscape:connector-curvature="0" /></clipPath><clipPath
       clipPathUnits="userSpaceOnUse"
       id="clipPath1402"><path
         d="M 0.029999,804.03 661.05,804.03 661.05,0.03 0.029999,0.03 0.029999,804.03 Z"
         id="path1404"
         inkscape:connector-curvature="0" /></clipPath><clipPath
       clipPathUnits="userSpaceOnUse"
       id="clipPath1486"><path
         d="M 29,775.5 632,775.5 632,28.5 29,28.5 29,775.5 Z"
         id="path1488"
         inkscape:connector-curvature="0" /></clipPath><clipPath
       clipPathUnits="userSpaceOnUse"
       id="clipPath1492"><path
         d="M 0.029999,804.03 661.05,804.03 661.05,0.03 0.029999,0.03 0.029999,804.03 Z"
         id="path1494"
         inkscape:connector-curvature="0" /></clipPath><linearGradient
       gradientUnits="userSpaceOnUse"
       y2="-637.59406"
       x2="495.06805"
       y1="-637.59406"
       x1="292.3952"
       id="linearGradient7991"
       xlink:href="#linearGradient7987"
       inkscape:collect="always" /><radialGradient
       inkscape:collect="always"
       xlink:href="#linearGradient9911"
       id="radialGradient9917"
       cx="284.9566"
       cy="541.76111"
       fx="284.9566"
       fy="541.76111"
       r="37.064979"
       gradientTransform="matrix(1.0350177,1.3774595,-0.59395494,0.44629542,319.20891,-87.044885)"
       gradientUnits="userSpaceOnUse" /></defs><g
     id="g10"
     inkscape:groupmode="layer"
     inkscape:label="J. L. Meriam, L. G. Kraige-Engineering Mechanics_ Dynamics. 2-Wiley (2012)_scissored"
     transform="matrix(1.25,0,0,-1.25,-53.125,952.5)"><path
       d="M 176.47316,584.59861 161.45116,563.79761"
       style="fill:none;stroke:#231f20;stroke-width:0.25;stroke-linecap:butt;stroke-linejoin:miter;stroke-miterlimit:4;stroke-dasharray:10, 2, 2, 2;stroke-dashoffset:0;stroke-opacity:1"
       id="path558"
       inkscape:connector-curvature="0" /><path
       d="M 215.45116,594.29761 248.78115,596.69761"
       style="fill:none;stroke:#231f20;stroke-width:0.40000001;stroke-linecap:butt;stroke-linejoin:miter;stroke-miterlimit:4;stroke-dasharray:5, 2;stroke-dashoffset:0;stroke-opacity:1"
       id="path560"
       inkscape:connector-curvature="0" /><path
       d="M 244.27515,684.34361 C 253.43215,679.76561 252.32515,668.81861 256.35115,664.79361 260.37615,660.76861 259.80115,648.11861 257.50115,641.79361 255.20116,635.46761 245.04215,619.07961 242.55015,615.34261 237.95015,608.44261 226.68115,608.44261 223.00015,601.54261 218.40015,592.91761 209.20015,586.59261 199.42515,587.74261 189.65015,588.89261 183.90015,581.99261 178.72516,583.14261 173.55016,584.29261 171.82516,591.19261 170.10016,595.79261 168.37516,600.39261 167.80016,606.14261 169.52515,611.89261 171.25015,617.64261 184.47516,662.49361 191.37515,669.39361 198.27515,676.29361 206.90015,686.64361 216.10016,684.91861 225.30015,683.19361 230.47516,691.24361 244.27515,684.34361"
       style="fill:#b4d8be;fill-opacity:1;fill-rule:nonzero;stroke:none"
       id="path562"
       inkscape:connector-curvature="0" /><path
       d="M 244.17015,684.36361 C 253.82815,679.55361 251.85715,668.64861 255.88215,664.62261 259.90715,660.59861 259.05615,648.48061 256.75516,642.15461 254.45615,635.83061 244.40215,619.82461 241.91115,616.08861 237.31215,609.18861 226.25415,609.25261 222.57415,602.35161 217.97415,593.72661 209.05115,587.46561 199.27615,588.61561 189.50015,589.76561 183.85715,582.65261 178.68216,583.80261 173.50715,584.95261 171.93116,591.36261 170.20616,595.96261 168.48116,600.56261 167.80016,606.14261 169.52515,611.89261 171.25015,617.64261 184.47516,662.49361 191.37515,669.39361 198.27515,676.29361 206.90015,686.64361 216.10016,684.91861 225.30015,683.19361 230.36216,691.24961 244.17015,684.36361"
       style="fill:#aed5b9;fill-opacity:1;fill-rule:nonzero;stroke:none"
       id="path564"
       inkscape:connector-curvature="0" /><path
       d="M 244.06416,684.38461 C 254.22415,679.34261 251.38815,668.47761 255.41415,664.45261 259.43916,660.42761 258.31015,648.84261 256.01015,642.51761 253.70915,636.19261 243.76415,620.56961 241.27316,616.83361 236.67216,609.93361 225.82915,610.06161 222.14816,603.16061 217.54815,594.53561 208.90215,588.33861 199.12715,589.48861 189.35215,590.63861 183.81516,583.31261 178.64016,584.46261 173.46415,585.61261 172.03816,591.53261 170.31316,596.13261 168.58816,600.73361 167.80016,606.14261 169.52515,611.89261 171.25015,617.64261 184.47516,662.49361 191.37515,669.39361 198.27515,676.29361 206.90015,686.64361 216.10016,684.91861 225.30015,683.19361 230.24916,691.25461 244.06416,684.38461"
       style="fill:#a9d2b4;fill-opacity:1;fill-rule:nonzero;stroke:none"
       id="path566"
       inkscape:connector-curvature="0" /><path
       d="M 243.95915,684.40461 C 254.61915,679.13061 250.92015,668.30761 254.94516,664.28261 258.97015,660.25761 257.56516,649.20461 255.26515,642.87961 252.96415,636.55461 243.12515,621.31561 240.63315,617.57861 236.03415,610.67861 225.40315,610.87061 221.72215,603.97061 217.12215,595.34561 208.75315,589.21161 198.97815,590.36161 189.20315,591.51161 183.77216,583.97261 178.59716,585.12261 173.42216,586.27261 172.14415,591.70361 170.41916,596.30361 168.69416,600.90361 167.80016,606.14261 169.52515,611.89261 171.25015,617.64261 184.47516,662.49361 191.37515,669.39361 198.27515,676.29361 206.90015,686.64361 216.10016,684.91861 225.30015,683.19361 230.13616,691.26061 243.95915,684.40461"
       style="fill:#a3cfb0;fill-opacity:1;fill-rule:nonzero;stroke:none"
       id="path568"
       inkscape:connector-curvature="0" /><path
       d="M 243.85315,684.42561 C 255.01515,678.91961 250.45116,668.13661 254.47715,664.11161 258.50215,660.08661 256.81915,649.56661 254.52015,643.24161 252.21916,636.91661 242.48615,622.06061 239.99515,618.32361 235.39515,611.42361 224.97715,611.68061 221.29616,604.77961 216.69616,596.15461 208.60415,590.08461 198.82915,591.23461 189.05415,592.38461 183.73016,584.63261 178.55415,585.78261 173.37916,586.93261 172.25015,591.87361 170.52515,596.47361 168.80016,601.07361 167.80016,606.14261 169.52515,611.89261 171.25015,617.64261 184.47516,662.49361 191.37515,669.39361 198.27515,676.29361 206.90015,686.64361 216.10016,684.91861 225.30015,683.19361 230.02316,691.26561 243.85315,684.42561"
       style="fill:#9dccab;fill-opacity:1;fill-rule:nonzero;stroke:none"
       id="path570"
       inkscape:connector-curvature="0" /><path
       d="M 243.74715,684.44661 C 255.41016,678.70761 249.98315,667.96661 254.00815,663.94161 258.03315,659.91661 256.07415,649.92861 253.77316,643.60361 251.47315,637.27861 241.84715,622.80661 239.35616,619.06961 234.75615,612.16961 224.55115,612.48961 220.87115,605.58861 216.27115,596.96361 208.45515,590.95861 198.68015,592.10861 188.90416,593.25761 183.68716,585.29361 178.51215,586.44261 173.33716,587.59361 172.35715,592.04461 170.63215,596.64461 168.90716,601.24461 167.80016,606.14261 169.52515,611.89261 171.25015,617.64261 184.47516,662.49361 191.37515,669.39361 198.27515,676.29361 206.90015,686.64361 216.10016,684.91861 225.30015,683.19361 229.91016,691.27161 243.74715,684.44661"
       style="fill:#98c9a7;fill-opacity:1;fill-rule:nonzero;stroke:none"
       id="path572"
       inkscape:connector-curvature="0" /><path
       d="M 243.64216,684.46661 C 255.80615,678.49661 249.51415,667.79661 253.53915,663.77161 257.56416,659.74661 255.32915,650.29061 253.02815,643.96561 250.72815,637.64061 241.20815,623.55161 238.71715,619.81461 234.11715,612.91461 224.12515,613.29861 220.44415,606.39861 215.84416,597.77361 208.30615,591.83161 198.53015,592.98161 188.75516,594.13161 183.64415,585.95361 178.46916,587.10361 173.29416,588.25361 172.46316,592.21461 170.73815,596.81461 169.01416,601.41461 167.80016,606.14261 169.52515,611.89261 171.25015,617.64261 184.47516,662.49361 191.37515,669.39361 198.27515,676.29361 206.90015,686.64361 216.10016,684.91861 225.30015,683.19361 229.79716,691.27661 243.64216,684.46661"
       style="fill:#92c6a3;fill-opacity:1;fill-rule:nonzero;stroke:none"
       id="path574"
       inkscape:connector-curvature="0" /><path
       d="M 243.53615,684.48761 C 256.20116,678.28461 249.04616,667.62561 253.07116,663.60061 257.09615,659.57561 254.58415,650.65261 252.28315,644.32761 249.98315,638.00261 240.56915,624.29661 238.07815,620.56061 233.47815,613.65961 223.69915,614.10861 220.01915,607.20761 215.41815,598.58261 208.15715,592.70461 198.38115,593.85461 188.60715,595.00461 183.60215,586.61361 178.42716,587.76361 173.25216,588.91361 172.57016,592.38461 170.84515,596.98461 169.12016,601.58561 167.80016,606.14261 169.52515,611.89261 171.25015,617.64261 184.47516,662.49361 191.37515,669.39361 198.27515,676.29361 206.90015,686.64361 216.10016,684.91861 225.30015,683.19361 229.68416,691.28161 243.53615,684.48761"
       style="fill:#8dc49f;fill-opacity:1;fill-rule:nonzero;stroke:none"
       id="path576"
       inkscape:connector-curvature="0" /><path
       d="M 243.43115,684.50861 C 256.59715,678.07361 248.57715,667.45561 252.60215,663.43061 256.62815,659.40561 253.83816,651.01461 251.53815,644.68961 249.23716,638.36461 239.93015,625.04261 237.43916,621.30561 232.83915,614.40561 223.27316,614.91761 219.59315,608.01661 214.99316,599.39161 208.00715,593.57761 198.23315,594.72761 188.45716,595.87761 183.55916,587.27361 178.38416,588.42361 173.20915,589.57361 172.67616,592.55561 170.95116,597.15561 169.22716,601.75561 167.80016,606.14261 169.52515,611.89261 171.25015,617.64261 184.47516,662.49361 191.37515,669.39361 198.27515,676.29361 206.90015,686.64361 216.10016,684.91861 225.30015,683.19361 229.57116,691.28761 243.43115,684.50861"
       style="fill:#87c19b;fill-opacity:1;fill-rule:nonzero;stroke:none"
       id="path578"
       inkscape:connector-curvature="0" /><path
       d="M 243.32515,684.52861 C 256.99215,677.86161 248.10815,667.28461 252.13415,663.25961 256.15915,659.23461 253.09215,651.37661 250.79215,645.05161 248.49215,638.72661 239.29215,625.78761 236.80015,622.05061 232.20015,615.15161 222.84715,615.72661 219.16715,608.82561 214.56715,600.20061 207.85815,594.45061 198.08315,595.60061 188.30816,596.75061 183.51716,587.93461 178.34116,589.08461 173.16715,590.23461 172.78316,592.72561 171.05816,597.32561 169.33316,601.92561 167.80016,606.14261 169.52515,611.89261 171.25015,617.64261 184.47516,662.49361 191.37515,669.39361 198.27515,676.29361 206.90015,686.64361 216.10016,684.91861 225.30015,683.19361 229.45815,691.29361 243.32515,684.52861"
       style="fill:#82be97;fill-opacity:1;fill-rule:nonzero;stroke:none"
       id="path580"
       inkscape:connector-curvature="0" /><path
       d="M 244.27515,684.34361 C 253.43215,679.76561 244.39315,668.72361 246.28815,663.35661 248.01315,658.46861 244.85016,653.29361 242.55015,646.96861 240.25015,640.64361 230.37915,631.72961 227.88815,627.99261 223.28815,621.09261 218.91815,624.25561 215.23716,617.35561 210.63815,608.73061 208.33816,606.42961 198.56315,607.57961 188.78715,608.73061 187.63715,600.39261 182.46316,601.54261 177.28715,602.69261 177.28715,600.67961 175.56216,605.27961 173.83816,609.88061 171.53715,613.32961 172.68716,619.08061 173.86415,624.96661 184.47516,662.49361 191.37515,669.39361 198.27515,676.29361 206.90015,686.64361 216.10016,684.91861 225.30015,683.19361 230.47516,691.24361 244.27515,684.34361"
       style="fill:#82be97;fill-opacity:1;fill-rule:nonzero;stroke:none"
       id="path582"
       inkscape:connector-curvature="0" /><path
       d="M 244.18916,684.36061 C 253.01015,679.93661 244.12115,668.78461 245.55615,663.40761 246.91715,658.60761 243.75215,653.76361 241.45315,647.43861 239.15215,641.11361 229.60115,632.54261 227.07715,628.82961 222.66016,622.26861 218.43215,625.15061 214.61015,618.34861 210.19315,610.24561 207.89315,608.12961 198.64115,609.12261 189.57116,610.14161 188.29116,602.43161 183.27316,603.47661 178.33116,604.52261 177.89016,602.64661 176.24216,606.84861 174.46415,611.08261 172.19115,614.34961 173.26215,619.89061 174.37816,625.78561 184.47516,662.49361 191.37515,669.39361 198.27515,676.29361 206.90015,686.64361 216.10016,684.91861 225.30015,683.19361 230.40215,691.28661 244.18916,684.36061"
       style="fill:#88c19b;fill-opacity:1;fill-rule:nonzero;stroke:none"
       id="path584"
       inkscape:connector-curvature="0" /><path
       d="M 244.10315,684.37761 C 252.58816,680.10861 243.84915,668.84561 244.82415,663.46061 245.82116,658.74661 242.65515,654.23461 240.35515,647.90861 238.05515,641.58461 228.82215,633.35561 226.26716,629.66561 222.03315,623.44461 217.94516,626.04461 213.98315,619.34161 209.74916,611.76161 207.44915,609.82761 198.71916,610.66461 190.35515,611.55261 188.94415,604.46961 184.08315,605.41061 179.37515,606.35161 178.49316,604.61261 176.92116,608.41661 175.09216,612.28461 172.84416,615.36861 173.83816,620.70061 174.89116,626.60461 184.47516,662.49361 191.37515,669.39361 198.27515,676.29361 206.90015,686.64361 216.10016,684.91861 225.30015,683.19361 230.32915,691.32961 244.10315,684.37761"
       style="fill:#8ec49f;fill-opacity:1;fill-rule:nonzero;stroke:none"
       id="path586"
       inkscape:connector-curvature="0" /><path
       d="M 244.01615,684.39461 C 252.16616,680.27961 243.57715,668.90661 244.09215,663.51261 244.72615,658.88561 241.55715,654.70461 239.25715,648.37961 236.95716,642.05461 228.04415,634.16761 225.45716,630.50161 221.40615,624.62161 217.45915,626.93961 213.35515,620.33461 209.30515,613.27761 207.00415,611.52661 198.79716,612.20661 191.14015,612.96461 189.59815,606.50861 184.89315,607.34461 180.42016,608.18161 179.09615,606.57961 177.60115,609.98461 175.71916,613.48661 173.49816,616.38861 174.41215,621.51061 175.40416,627.42361 184.47516,662.49361 191.37515,669.39361 198.27515,676.29361 206.90015,686.64361 216.10016,684.91861 225.30015,683.19361 230.25615,691.37261 244.01615,684.39461"
       style="fill:#94c7a4;fill-opacity:1;fill-rule:nonzero;stroke:none"
       id="path588"
       inkscape:connector-curvature="0" /><path
       d="M 243.93015,684.41061 C 251.74316,680.45161 243.30515,668.96761 243.36015,663.56461 243.63016,659.02461 240.45915,655.17561 238.15915,648.85061 235.85915,642.52561 227.26615,634.98061 224.64715,631.33861 220.77815,625.79661 216.97315,627.83361 212.72915,621.32761 208.86015,614.79361 206.56015,613.22561 198.87615,613.74861 191.92415,614.37561 190.25115,608.54661 185.70315,609.27861 181.46316,610.01061 179.69916,608.54561 178.28015,611.55261 176.34615,614.68961 174.15116,617.40761 174.98716,622.32061 175.91815,628.24261 184.47516,662.49361 191.37515,669.39361 198.27515,676.29361 206.90015,686.64361 216.10016,684.91861 225.30015,683.19361 230.18316,691.41461 243.93015,684.41061"
       style="fill:#9acaa9;fill-opacity:1;fill-rule:nonzero;stroke:none"
       id="path590"
       inkscape:connector-curvature="0" /><path
       d="M 243.84315,684.42761 C 251.32116,680.62361 243.03315,669.02761 242.62915,663.61661 242.53415,659.16361 239.36115,655.64561 237.06215,649.32061 234.76215,642.99561 226.48815,635.79361 223.83615,632.17461 220.15115,626.97361 216.48716,628.72761 212.10115,622.32061 208.41616,616.30961 206.11615,614.92461 198.95515,615.29061 192.70815,615.78661 190.90416,610.58561 186.51315,611.21361 182.50715,611.83961 180.30216,610.51161 178.96016,613.12061 176.97416,615.89161 174.80415,618.42661 175.56216,623.13161 176.43116,629.06161 184.47516,662.49361 191.37515,669.39361 198.27515,676.29361 206.90015,686.64361 216.10016,684.91861 225.30015,683.19361 230.11015,691.45761 243.84315,684.42761"
       style="fill:#a0cead;fill-opacity:1;fill-rule:nonzero;stroke:none"
       id="path592"
       inkscape:connector-curvature="0" /><path
       d="M 243.75715,684.44461 C 250.89915,680.79561 242.76116,669.08861 241.89715,663.66961 241.43916,659.30261 238.26415,656.11561 235.96415,649.79061 233.66415,643.46561 225.70915,636.60561 223.02615,633.01161 219.52415,628.14961 216.00115,629.62161 211.47415,623.31461 207.97215,617.82561 205.67116,616.62361 199.03315,616.83261 193.49215,617.19761 191.55816,612.62461 187.32415,613.14761 183.55116,613.66961 180.90515,612.47761 179.64016,614.68961 177.60115,617.09361 175.45815,619.44561 176.13715,623.94161 176.94416,629.88061 184.47516,662.49361 191.37515,669.39361 198.27515,676.29361 206.90015,686.64361 216.10016,684.91861 225.30015,683.19361 230.03715,691.50061 243.75715,684.44461"
       style="fill:#a6d1b2;fill-opacity:1;fill-rule:nonzero;stroke:none"
       id="path594"
       inkscape:connector-curvature="0" /><path
       d="M 243.67015,684.46161 C 250.47715,680.96661 242.48815,669.15061 241.16515,663.72161 240.34315,659.44161 237.16616,656.58661 234.86615,650.26161 232.56615,643.93661 224.93215,637.41861 222.21615,633.84761 218.89715,629.32561 215.51415,630.51661 210.84715,624.30761 207.52715,619.34161 205.22715,618.32161 199.11115,618.37461 194.27615,618.60961 192.21115,614.66361 188.13415,615.08161 184.59515,615.49961 181.50816,614.44461 180.31916,616.25761 178.22816,618.29661 176.11116,620.46561 176.71316,624.75161 177.45815,630.69961 184.47516,662.49361 191.37515,669.39361 198.27515,676.29361 206.90015,686.64361 216.10016,684.91861 225.30015,683.19361 229.96415,691.54361 243.67015,684.46161"
       style="fill:#acd4b7;fill-opacity:1;fill-rule:nonzero;stroke:none"
       id="path596"
       inkscape:connector-curvature="0" /><path
       d="M 243.58415,684.47861 C 250.05415,681.13861 242.21615,669.21061 240.43316,663.77461 239.24715,659.57961 236.06815,657.05761 233.76815,650.73261 231.46815,644.40661 224.15315,638.23161 221.40615,634.68361 218.27015,630.50161 215.02815,631.41061 210.21916,625.30061 207.08315,620.85761 204.78315,620.02061 199.19016,619.91661 195.06015,620.02061 192.86415,616.70161 188.94415,617.01561 185.63915,617.32861 182.11016,616.41061 180.99916,617.82561 178.85516,619.49861 176.76416,621.48461 177.28715,625.56161 177.97115,631.51861 184.47516,662.49361 191.37515,669.39361 198.27515,676.29361 206.90015,686.64361 216.10016,684.91861 225.30015,683.19361 229.89115,691.58661 243.58415,684.47861"
       style="fill:#b3d8bc;fill-opacity:1;fill-rule:nonzero;stroke:none"
       id="path598"
       inkscape:connector-curvature="0" /><path
       d="M 243.49815,684.49461 C 249.63215,681.31061 241.94415,669.27161 239.70116,663.82661 238.15115,659.71861 234.97115,657.52761 232.67015,651.20261 230.37115,644.87761 223.37515,639.04361 220.59615,635.52061 217.64216,631.67861 214.54215,632.30561 209.59215,626.29361 206.63915,622.37361 204.33816,621.71961 199.26815,621.45861 195.84416,621.43261 193.51815,618.73961 189.75415,618.94961 186.68316,619.15861 182.71316,618.37661 181.67816,619.39361 179.48315,620.70061 177.41815,622.50461 177.86216,626.37261 178.48416,632.33761 184.47516,662.49361 191.37515,669.39361 198.27515,676.29361 206.90015,686.64361 216.10016,684.91861 225.30015,683.19361 229.81815,691.62961 243.49815,684.49461"
       style="fill:#b9dbc2;fill-opacity:1;fill-rule:nonzero;stroke:none"
       id="path600"
       inkscape:connector-curvature="0" /><path
       d="M 243.41215,684.51161 C 249.21015,681.48261 241.67216,669.33261 238.97015,663.87861 237.05615,659.85861 233.87315,657.99761 231.57315,651.67261 229.27316,645.34761 222.59715,639.85661 219.78516,636.35661 217.01515,632.85461 214.05615,633.19961 208.96515,627.28661 206.19415,623.88961 203.89415,623.41861 199.34715,623.00061 196.62915,622.84361 194.17116,620.77861 190.56516,620.88361 187.72815,620.98761 183.31716,620.34361 182.35715,620.96161 180.11016,621.90261 178.07116,623.52361 178.43716,627.18261 178.99816,633.15661 184.47516,662.49361 191.37515,669.39361 198.27515,676.29361 206.90015,686.64361 216.10016,684.91861 225.30015,683.19361 229.74515,691.67161 243.41215,684.51161"
       style="fill:#c0dec7;fill-opacity:1;fill-rule:nonzero;stroke:none"
       id="path602"
       inkscape:connector-curvature="0" /><path
       d="M 243.32515,684.52861 C 248.78815,681.65361 241.40015,669.39361 238.23815,663.93061 235.96015,659.99661 232.77515,658.46861 230.47516,652.14361 228.17515,645.81761 221.81915,640.66861 218.97516,637.19261 216.38815,634.03061 213.56915,634.09361 208.33816,628.27961 205.75015,625.40461 203.45015,625.11761 199.42515,624.54261 197.41315,624.25561 194.82515,622.81761 191.37515,622.81761 188.77215,622.81761 183.92016,622.30961 183.03715,622.52961 180.73716,623.10561 178.72516,624.54261 179.01215,627.99261 179.51116,633.97561 184.47516,662.49361 191.37515,669.39361 198.27515,676.29361 206.90015,686.64361 216.10016,684.91861 225.30015,683.19361 229.67216,691.71461 243.32515,684.52861"
       style="fill:#c6e2cc;fill-opacity:1;fill-rule:nonzero;stroke:none"
       id="path604"
       inkscape:connector-curvature="0" /><path
       d="M 242.32616,684.18161 C 247.61715,681.39761 240.48315,669.54061 237.42116,664.24961 235.21515,660.43961 232.13016,658.95961 229.90315,652.83361 227.67515,646.70761 221.51915,641.72061 218.76515,638.35461 216.25915,635.29161 213.53015,635.35261 208.46316,629.72261 205.95716,626.93761 203.72915,626.65961 199.83115,626.10261 197.88115,625.82361 195.37615,624.43161 192.03415,624.43161 189.51315,624.43161 184.81416,623.93961 183.95915,624.15361 181.73215,624.71061 179.78316,626.10261 180.06116,629.44361 180.54416,635.23861 185.35215,662.85761 192.03415,669.54061 198.71715,676.22261 207.07016,686.24661 215.98015,684.57661 224.89115,682.90561 229.10315,691.14161 242.32616,684.18161"
       style="fill:#c8e3ce;fill-opacity:1;fill-rule:nonzero;stroke:none"
       id="path606"
       inkscape:connector-curvature="0" /><path
       d="M 241.32815,683.83461 C 246.44616,681.14061 239.56715,669.68761 236.60415,664.56861 234.47015,660.88261 231.48515,659.45061 229.33015,653.52461 227.17515,647.59761 221.21916,642.77261 218.55515,639.51561 216.13016,636.55261 213.49015,636.61161 208.58816,631.16461 206.16315,628.47061 204.00815,628.20061 200.23615,627.66261 198.35115,627.39261 195.92615,626.04561 192.69415,626.04561 190.25415,626.04561 185.70815,625.56961 184.88115,625.77661 182.72615,626.31561 180.84015,627.66261 181.11016,630.89461 181.57715,636.50161 186.22915,663.22161 192.69415,669.68761 199.15915,676.15161 207.24115,685.85061 215.86115,684.23461 224.48215,682.61761 228.53516,690.56761 241.32815,683.83461"
       style="fill:#cae4d0;fill-opacity:1;fill-rule:nonzero;stroke:none"
       id="path608"
       inkscape:connector-curvature="0" /><path
       d="M 240.33015,683.48661 C 245.27615,680.88361 238.65115,669.83361 235.78715,664.88761 233.72516,661.32461 230.84115,659.94161 228.75815,654.21361 226.67515,648.48661 220.92015,643.82361 218.34515,640.67661 216.00215,637.81261 213.45015,637.86961 208.71316,632.60661 206.37015,630.00261 204.28715,629.74161 200.64216,629.22161 198.82016,628.96161 196.47715,627.65961 193.35315,627.65961 190.99515,627.65961 186.60215,627.19961 185.80316,627.39961 183.72015,627.91961 181.89816,629.22161 182.15816,632.34561 182.61016,637.76261 187.10515,663.58561 193.35315,669.83361 199.60115,676.08161 207.41115,685.45361 215.74115,683.89161 224.07215,682.32961 227.96615,689.99361 240.33015,683.48661"
       style="fill:#cde5d2;fill-opacity:1;fill-rule:nonzero;stroke:none"
       id="path610"
       inkscape:connector-curvature="0" /><path
       d="M 239.33115,683.13961 C 244.10515,680.62661 237.73415,669.98061 234.97015,665.20661 232.98015,661.76861 230.19616,660.43261 228.18615,654.90361 226.17515,649.37561 220.62015,644.87561 218.13415,641.83761 215.87315,639.07361 213.41016,639.12861 208.83816,634.04761 206.57616,631.53561 204.56615,631.28461 201.04815,630.78061 199.28915,630.52961 197.02715,629.27361 194.01215,629.27361 191.73716,629.27361 187.49615,628.82961 186.72516,629.02261 184.71515,629.52461 182.95616,630.78061 183.20716,633.79661 183.64315,639.02561 187.98215,663.94961 194.01215,669.98061 200.04315,676.01161 207.58115,685.05761 215.62215,683.54961 223.66315,682.04161 227.39816,689.42061 239.33115,683.13961"
       style="fill:#cfe6d4;fill-opacity:1;fill-rule:nonzero;stroke:none"
       id="path612"
       inkscape:connector-curvature="0" /><path
       d="M 238.33315,682.79261 C 242.93515,680.37061 236.81815,670.12761 234.15315,665.52561 232.23415,662.21061 229.55115,660.92261 227.61315,655.59361 225.67615,650.26561 220.32016,645.92661 217.92415,642.99861 215.74515,640.33461 213.37015,640.38761 208.96316,635.48961 206.78215,633.06761 204.84515,632.82561 201.45415,632.34061 199.75815,632.09861 197.57815,630.88661 194.67116,630.88661 192.47815,630.88661 188.39015,630.45861 187.64715,630.64461 185.70915,631.12961 184.01416,632.34061 184.25615,635.24761 184.67615,640.28761 188.85815,664.31461 194.67116,670.12761 200.48415,675.94061 207.75115,684.66061 215.50215,683.20761 223.25415,681.75461 226.83015,688.84661 238.33315,682.79261"
       style="fill:#d1e7d5;fill-opacity:1;fill-rule:nonzero;stroke:none"
       id="path614"
       inkscape:connector-curvature="0" /><path
       d="M 237.33415,682.44461 C 241.76415,680.11361 235.90115,670.27461 233.33615,665.84361 231.48915,662.65361 228.90615,661.41361 227.04116,656.28461 225.17615,651.15461 220.02115,646.97861 217.71415,644.15961 215.61615,641.59461 213.33115,641.64661 209.08816,636.93161 206.98915,634.59961 205.12416,634.36661 201.85915,633.90061 200.22715,633.66761 198.12915,632.50161 195.33115,632.50161 193.21916,632.50161 189.28415,632.08961 188.56915,632.26861 186.70415,632.73461 185.07116,633.90061 185.30515,636.69861 185.70915,641.55061 189.73515,664.67861 195.33115,670.27461 200.92716,675.86961 207.92116,684.26361 215.38315,682.86461 222.84416,681.46561 226.26116,688.27361 237.33415,682.44461"
       style="fill:#d3e8d7;fill-opacity:1;fill-rule:nonzero;stroke:none"
       id="path616"
       inkscape:connector-curvature="0" /><path
       d="M 236.33615,682.09761 C 240.59416,679.85761 234.98515,670.42061 232.52015,666.16261 230.74415,663.09661 228.26215,661.90461 226.46916,656.97461 224.67615,652.04361 219.72115,648.02961 217.50415,645.32061 215.48716,642.85561 213.29116,642.90461 209.21316,638.37361 207.19516,636.13161 205.40215,635.90761 202.26515,635.45961 200.69616,635.23561 198.67915,634.11461 195.99015,634.11461 193.96015,634.11461 190.17816,633.71861 189.49115,633.89061 187.69815,634.33861 186.12915,635.45961 186.35315,638.14961 186.74215,642.81261 190.61115,665.04261 195.99015,670.42061 201.36915,675.79961 208.09215,683.86761 215.26315,682.52361 222.43515,681.17861 225.69315,687.69961 236.33615,682.09761"
       style="fill:#d5e9d9;fill-opacity:1;fill-rule:nonzero;stroke:none"
       id="path618"
       inkscape:connector-curvature="0" /><path
       d="M 235.33715,681.75061 C 239.42315,679.60061 234.06815,670.56761 231.70315,666.48161 229.99916,663.53861 227.61715,662.39561 225.89715,657.66461 224.17615,652.93361 219.42116,649.08161 217.29415,646.48261 215.35915,644.11561 213.25115,644.16361 209.33816,639.81461 207.40215,637.66461 205.68115,637.44961 202.67116,637.01961 201.16616,636.80461 199.23015,635.72961 196.64915,635.72961 194.70215,635.72961 191.07215,635.34961 190.41315,635.51361 188.69215,635.94361 187.18715,637.01961 187.40215,639.60061 187.77515,644.07461 191.48815,665.40661 196.64915,670.56761 201.81115,675.72961 208.26215,683.47061 215.14415,682.18061 222.02515,680.89061 225.12416,687.12561 235.33715,681.75061"
       style="fill:#d7ebdb;fill-opacity:1;fill-rule:nonzero;stroke:none"
       id="path620"
       inkscape:connector-curvature="0" /><path
       d="M 234.33816,681.40261 C 238.25215,679.34361 233.15215,670.71461 230.88616,666.80061 229.25415,663.98161 226.97215,662.88661 225.32415,658.35461 223.67615,653.82261 219.12215,650.13361 217.08415,647.64361 215.23015,645.37761 213.21115,645.42261 209.46316,641.25761 207.60815,639.19661 205.96015,638.99061 203.07616,638.57961 201.63415,638.37361 199.78015,637.34361 197.30916,637.34361 195.44315,637.34361 191.96715,636.97961 191.33415,637.13761 189.68715,637.54961 188.24515,638.57961 188.45116,641.05161 188.80816,645.33761 192.36515,665.77061 197.30916,670.71461 202.25315,675.65861 208.43215,683.07361 215.02515,681.83861 221.61615,680.60261 224.55615,686.55161 234.33816,681.40261"
       style="fill:#d9ecdd;fill-opacity:1;fill-rule:nonzero;stroke:none"
       id="path622"
       inkscape:connector-curvature="0" /><path
       d="M 233.34015,681.05661 C 237.08216,679.08661 232.23515,670.86061 230.06915,667.11961 228.50915,664.42461 226.32715,663.37761 224.75215,659.04461 223.17615,654.71261 218.82215,651.18461 216.87416,648.80361 215.10215,646.63761 213.17116,646.68061 209.58816,642.69861 207.81516,640.72961 206.23915,640.53261 203.48215,640.13861 202.10415,639.94161 200.33115,638.95661 197.96815,638.95661 196.18416,638.95661 192.86115,638.60961 192.25615,638.75961 190.68115,639.15361 189.30216,640.13861 189.49916,642.50161 189.84115,646.59961 193.24115,666.13461 197.96815,670.86061 202.69415,675.58761 208.60315,682.67761 214.90515,681.49561 221.20716,680.31461 223.98716,685.97861 233.34015,681.05661"
       style="fill:#dceddf;fill-opacity:1;fill-rule:nonzero;stroke:none"
       id="path624"
       inkscape:connector-curvature="0" /><path
       d="M 232.34115,680.70861 C 235.91115,678.82961 231.31915,671.00761 229.25215,667.43861 227.76415,664.86761 225.68215,663.86861 224.17915,659.73561 222.67615,655.60161 218.52316,652.23661 216.66415,649.96461 214.97315,647.89861 213.13115,647.93961 209.71215,644.14061 208.02215,642.26161 206.51815,642.07361 203.88815,641.69761 202.57315,641.51061 200.88115,640.57061 198.62715,640.57061 196.92615,640.57061 193.75516,640.23861 193.17816,640.38261 191.67515,640.75861 190.36015,641.69761 190.54815,643.95261 190.87416,647.86261 194.11816,666.49861 198.62715,671.00761 203.13616,675.51761 208.77316,682.28061 214.78516,681.15361 220.79716,680.02661 223.41915,685.40461 232.34115,680.70861"
       style="fill:#deeee1;fill-opacity:1;fill-rule:nonzero;stroke:none"
       id="path626"
       inkscape:connector-curvature="0" /><path
       d="M 231.34315,680.36161 C 234.74115,678.57261 230.40315,671.15461 228.43615,667.75661 227.01915,665.31061 225.03815,664.35961 223.60715,660.42461 222.17615,656.49061 218.22315,653.28761 216.45415,651.12561 214.84416,649.15861 213.09115,649.19761 209.83715,645.58261 208.22815,643.79361 206.79716,643.61461 204.29315,643.25761 203.04215,643.07861 201.43215,642.18461 199.28615,642.18461 197.66715,642.18461 194.64915,641.86861 194.10016,642.00561 192.67015,642.36261 191.41815,643.25761 191.59715,645.40261 191.90715,649.12461 194.99415,666.86261 199.28615,671.15461 203.57815,675.44661 208.94315,681.88461 214.66616,680.81161 220.38815,679.73861 222.85115,684.83161 231.34315,680.36161"
       style="fill:#e0efe3;fill-opacity:1;fill-rule:nonzero;stroke:none"
       id="path628"
       inkscape:connector-curvature="0" /><path
       d="M 230.34416,680.01461 C 233.57016,678.31661 229.48615,671.30161 227.61915,668.07561 226.27415,665.75261 224.39315,664.85061 223.03516,661.11461 221.67615,657.37961 217.92315,654.33961 216.24415,652.28661 214.71615,650.41961 213.05216,650.45661 209.96215,647.02461 208.43416,645.32661 207.07616,645.15661 204.69915,644.81761 203.51116,644.64761 201.98315,643.79861 199.94616,643.79861 198.40815,643.79861 195.54315,643.49861 195.02215,643.62861 193.66415,643.96861 192.47615,644.81761 192.64615,646.85461 192.94016,650.38761 195.87115,667.22761 199.94616,671.30161 204.02015,675.37661 209.11315,681.48761 214.54616,680.46961 219.97915,679.45061 222.28215,684.25761 230.34416,680.01461"
       style="fill:#e2f0e5;fill-opacity:1;fill-rule:nonzero;stroke:none"
       id="path630"
       inkscape:connector-curvature="0" /><path
       d="M 229.34615,679.66661 C 232.40015,678.05961 228.56915,671.44861 226.80115,668.39461 225.52815,666.19561 223.74815,665.34161 222.46215,661.80561 221.17615,658.26961 217.62416,655.39161 216.03415,653.44861 214.58715,651.68061 213.01215,651.71561 210.08715,648.46661 208.64115,646.85961 207.35515,646.69861 205.10515,646.37661 203.98015,646.21661 202.53415,645.41261 200.60515,645.41261 199.15015,645.41261 196.43815,645.12861 195.94415,645.25161 194.65915,645.57361 193.53415,646.37661 193.69415,648.30561 193.97315,651.64961 196.74815,667.59161 200.60515,671.44861 204.46316,675.30561 209.28415,681.09161 214.42615,680.12761 219.56915,679.16261 221.71316,683.68361 229.34615,679.66661"
       style="fill:#e4f1e7;fill-opacity:1;fill-rule:nonzero;stroke:none"
       id="path632"
       inkscape:connector-curvature="0" /><path
       d="M 228.34715,679.31961 C 231.22915,677.80261 227.65315,671.59561 225.98515,668.71361 224.78315,666.63861 223.10315,665.83161 221.89015,662.49561 220.67716,659.15861 217.32415,656.44261 215.82415,654.60961 214.45915,652.94161 212.97215,652.97461 210.21215,649.90761 208.84715,648.39161 207.63415,648.23961 205.51116,647.93661 204.44915,647.78461 203.08415,647.02561 201.26415,647.02561 199.89115,647.02561 197.33216,646.75761 196.86615,646.87461 195.65315,647.17761 194.59115,647.93661 194.74316,649.75561 195.00615,652.91161 197.62515,667.95561 201.26415,671.59561 204.90416,675.23461 209.45415,680.69461 214.30715,679.78461 219.16016,678.87461 221.14515,683.11061 228.34715,679.31961"
       style="fill:#e6f2e8;fill-opacity:1;fill-rule:nonzero;stroke:none"
       id="path634"
       inkscape:connector-curvature="0" /><path
       d="M 227.34915,678.97261 C 230.05816,677.54661 226.73615,671.74161 225.16815,669.03261 224.03815,667.08161 222.45915,666.32261 221.31715,663.18561 220.17716,660.04861 217.02415,657.49461 215.61315,655.77061 214.33015,654.20161 212.93215,654.23361 210.33715,651.34961 209.05415,649.92361 207.91315,649.78061 205.91715,649.49561 204.91815,649.35361 203.63515,648.64061 201.92315,648.64061 200.63215,648.64061 198.22615,648.38861 197.78815,648.49761 196.64715,648.78261 195.64915,649.49561 195.79215,651.20761 196.03915,654.17461 198.50115,668.31961 201.92315,671.74161 205.34615,675.16461 209.62416,680.29761 214.18815,679.44261 218.75015,678.58661 220.57715,682.53661 227.34915,678.97261"
       style="fill:#e9f4ea;fill-opacity:1;fill-rule:nonzero;stroke:none"
       id="path636"
       inkscape:connector-curvature="0" /><path
       d="M 226.35115,678.62561 C 228.88815,677.28961 225.82016,671.88861 224.35115,669.35161 223.29315,667.52461 221.81416,666.81361 220.74515,663.87561 219.67716,660.93761 216.72516,658.54561 215.40315,656.93161 214.20116,655.46261 212.89315,655.49161 210.46215,652.79161 209.26015,651.45561 208.19215,651.32161 206.32215,651.05461 205.38715,650.92161 204.18515,650.25361 202.58315,650.25361 201.37416,650.25361 199.12015,650.01761 198.71015,650.11961 197.64115,650.38761 196.70716,651.05461 196.84015,652.65761 197.07215,655.43661 199.37715,668.68361 202.58315,671.88861 205.78815,675.09361 209.79515,679.90161 214.06815,679.10061 218.34115,678.29861 220.00815,681.96361 226.35115,678.62561"
       style="fill:#ebf5ec;fill-opacity:1;fill-rule:nonzero;stroke:none"
       id="path638"
       inkscape:connector-curvature="0" /><path
       d="M 225.35215,678.27761 C 227.71715,677.03261 224.90416,672.03561 223.53415,669.67061 222.54815,667.96661 221.16915,667.30461 220.17315,664.56661 219.17716,661.82661 216.42515,659.59761 215.19315,658.09261 214.07315,656.72361 212.85315,656.75061 210.58715,654.23361 209.46715,652.98761 208.47115,652.86361 206.72815,652.61461 205.85616,652.49061 204.73615,651.86761 203.24215,651.86761 202.11515,651.86761 200.01415,651.64761 199.63215,651.74361 198.63616,651.99261 197.76415,652.61461 197.88915,654.10861 198.10515,656.69861 200.25415,669.04761 203.24215,672.03561 206.23015,675.02361 209.96415,679.50461 213.94815,678.75761 217.93215,678.01161 219.44016,681.38961 225.35215,678.27761"
       style="fill:#edf6ee;fill-opacity:1;fill-rule:nonzero;stroke:none"
       id="path640"
       inkscape:connector-curvature="0" /><path
       d="M 224.35415,677.93061 C 226.54716,676.77561 223.98716,672.18261 222.71715,669.98861 221.80316,668.40961 220.52415,667.79561 219.60115,665.25561 218.67716,662.71661 216.12515,660.64961 214.98315,659.25361 213.94415,657.98361 212.81315,658.00861 210.71215,655.67461 209.67315,654.52061 208.75015,654.40461 207.13315,654.17361 206.32515,654.05861 205.28715,653.48161 203.90115,653.48161 202.85616,653.48161 200.90815,653.27661 200.55415,653.36561 199.63016,653.59661 198.82215,654.17361 198.93815,655.55961 199.13815,657.96161 201.13115,669.41161 203.90115,672.18261 206.67216,674.95261 210.13515,679.10861 213.82915,678.41561 217.52316,677.72361 218.87215,680.81661 224.35415,677.93061"
       style="fill:#eff7f0;fill-opacity:1;fill-rule:nonzero;stroke:none"
       id="path642"
       inkscape:connector-curvature="0" /><path
       d="M 223.35515,677.58361 C 225.37615,676.51961 223.07116,672.32861 221.90015,670.30761 221.05816,668.85261 219.87915,668.28661 219.02815,665.94561 218.17716,663.60561 215.82515,661.70061 214.77316,660.41461 213.81615,659.24461 212.77316,659.26761 210.83715,657.11661 209.87915,656.05261 209.02815,655.94661 207.53915,655.73361 206.79515,655.62761 205.83715,655.09561 204.56115,655.09561 203.59715,655.09561 201.80216,654.90761 201.47615,654.98861 200.62515,655.20161 199.88016,655.73361 199.98615,657.01061 200.17116,659.22361 202.00715,669.77561 204.56115,672.32861 207.11415,674.88161 210.30515,678.71161 213.71015,678.07361 217.11315,677.43561 218.30316,680.24161 223.35515,677.58361"
       style="fill:#f2f8f3;fill-opacity:1;fill-rule:nonzero;stroke:none"
       id="path644"
       inkscape:connector-curvature="0" /><path
       d="M 222.35616,677.23561 C 224.20515,676.26261 222.15416,672.47561 221.08415,670.62661 220.31315,669.29561 219.23415,668.77761 218.45615,666.63661 217.67716,664.49561 215.52515,662.75261 214.56315,661.57561 213.68715,660.50461 212.73315,660.52661 210.96215,658.55861 210.08615,657.58561 209.30816,657.48761 207.94516,657.29361 207.26415,657.19561 206.38815,656.70961 205.22015,656.70961 204.33915,656.70961 202.69616,656.53761 202.39816,656.61161 201.61915,656.80661 200.93815,657.29361 201.03516,658.46161 201.20415,660.48661 202.88415,670.14061 205.22015,672.47561 207.55615,674.81161 210.47615,678.31461 213.59015,677.73161 216.70415,677.14761 217.73415,679.66861 222.35616,677.23561"
       style="fill:#f4f9f5;fill-opacity:1;fill-rule:nonzero;stroke:none"
       id="path646"
       inkscape:connector-curvature="0" /><path
       d="M 221.35815,676.88861 C 223.03516,676.00561 221.23815,672.62261 220.26716,670.94561 219.56715,669.73761 218.59015,669.26861 217.88415,667.32661 217.17816,665.38461 215.22615,663.80361 214.35315,662.73661 213.55916,661.76561 212.69315,661.78461 211.08715,660.00061 210.29315,659.11761 209.58615,659.02861 208.35115,658.85261 207.73315,658.76461 206.93916,658.32261 205.87915,658.32261 205.08015,658.32261 203.59015,658.16661 203.31915,658.23461 202.61315,658.41161 201.99515,658.85261 202.08415,659.91161 202.23716,661.74861 203.76116,670.50461 205.87915,672.62261 207.99815,674.74061 210.64615,677.91861 213.47015,677.38961 216.29515,676.85961 217.16616,679.09461 221.35815,676.88861"
       style="fill:#f6faf7;fill-opacity:1;fill-rule:nonzero;stroke:none"
       id="path648"
       inkscape:connector-curvature="0" /><path
       d="M 220.35915,676.54161 C 221.86415,675.74961 220.32116,672.76961 219.45015,671.26461 218.82215,670.18061 217.94516,669.75961 217.31115,668.01661 216.67816,666.27461 214.92615,664.85561 214.14315,663.89761 213.43015,663.02561 212.65315,663.04361 211.21215,661.44261 210.49916,660.65061 209.86515,660.57061 208.75615,660.41261 208.20215,660.33361 207.48915,659.93761 206.53915,659.93761 205.82116,659.93761 204.48415,659.79661 204.24115,659.85861 203.60815,660.01661 203.05316,660.41261 203.13215,661.36261 203.27015,663.01161 204.63715,670.86861 206.53915,672.76961 208.44016,674.67061 210.81615,677.52261 213.35115,677.04661 215.88515,676.57161 216.59815,678.52161 220.35915,676.54161"
       style="fill:#f8fcf9;fill-opacity:1;fill-rule:nonzero;stroke:none"
       id="path650"
       inkscape:connector-curvature="0" /><path
       d="M 219.36115,676.19361 C 220.69415,675.49261 219.40515,672.91661 218.63315,671.58361 218.07815,670.62361 217.30015,670.25061 216.73915,668.70661 216.17816,667.16261 214.62715,665.90661 213.93316,665.05861 213.30115,664.28661 212.61415,664.30261 211.33715,662.88361 210.70615,662.18261 210.14415,662.11161 209.16215,661.97161 208.67116,661.90061 208.04015,661.55061 207.19815,661.55061 206.56315,661.55061 205.37915,661.42661 205.16315,661.48061 204.60215,661.62061 204.11115,661.97161 204.18115,662.81361 204.30316,664.27361 205.51415,671.23261 207.19815,672.91661 208.88115,674.59961 210.98615,677.12561 213.23116,676.70461 215.47615,676.28361 216.02916,677.94761 219.36115,676.19361"
       style="fill:#fafdfb;fill-opacity:1;fill-rule:nonzero;stroke:none"
       id="path652"
       inkscape:connector-curvature="0" /><path
       d="M 218.36216,675.84661 C 219.52316,675.23561 218.48815,673.06361 217.81715,671.90161 217.33216,671.06661 216.65515,670.74061 216.16715,669.39761 215.67816,668.05261 214.32715,666.95861 213.72315,666.21961 213.17216,665.54761 212.57415,665.56161 211.46215,664.32561 210.91215,663.71461 210.42315,663.65361 209.56815,663.53161 209.14015,663.47061 208.59015,663.16461 207.85715,663.16461 207.30415,663.16461 206.27316,663.05661 206.08515,663.10361 205.59615,663.22561 205.16815,663.53161 205.23015,664.26461 205.33615,665.53561 206.39115,671.59661 207.85715,673.06361 209.32415,674.52861 211.15615,676.72861 213.11216,676.36161 215.06715,675.99561 215.46115,677.37461 218.36216,675.84661"
       style="fill:#fdfefd;fill-opacity:1;fill-rule:nonzero;stroke:none"
       id="path654"
       inkscape:connector-curvature="0" /><path
       d="M 217.36415,675.49961 C 218.35315,674.97961 217.57215,673.20961 216.99916,672.22061 216.58715,671.50861 216.01015,671.23261 215.59416,670.08761 215.17816,668.94261 214.02715,668.01061 213.51315,667.38061 213.04415,666.80861 212.53415,666.81961 211.58715,665.76761 211.11915,665.24761 210.70215,665.19461 209.97415,665.09061 209.60915,665.03961 209.14115,664.77861 208.51716,664.77861 208.04515,664.77861 207.16715,664.68761 207.00715,664.72661 206.59115,664.83061 206.22715,665.09061 206.27916,665.71561 206.36915,666.79861 207.26815,671.96061 208.51716,673.20961 209.76615,674.45861 211.32715,676.33261 212.99215,676.02061 214.65715,675.70761 214.89216,676.80061 217.36415,675.49961"
       style="fill:#ffffff;fill-opacity:1;fill-rule:nonzero;stroke:none"
       id="path656"
       inkscape:connector-curvature="0" /><path
       d="M 430.77115,650.84261 C 411.36015,664.61861 391.03015,669.31361 385.36415,661.32961 379.69815,653.34461 390.83915,635.70461 410.25015,621.92861 429.66215,608.15261 449.99115,603.45761 455.65815,611.44261 461.32415,619.42661 450.18215,637.06761 430.77115,650.84261 Z"
       style="fill:none;stroke:#f68514;stroke-width:0.75;stroke-linecap:butt;stroke-linejoin:miter;stroke-miterlimit:4;stroke-dasharray:6, 2;stroke-dashoffset:0;stroke-opacity:1"
       id="path658"
       inkscape:connector-curvature="0" /><path
       d="M 466.80115,701.80761 446.19215,672.76661"
       style="fill:none;stroke:#231f20;stroke-width:0.25;stroke-linecap:butt;stroke-linejoin:miter;stroke-miterlimit:4;stroke-dasharray:14, 2, 2, 2;stroke-dashoffset:0;stroke-opacity:1"
       id="path660"
       inkscape:connector-curvature="0" /><path
       d="M 269.09215,715.49561 260.78516,703.46561"
       style="fill:none;stroke:#231f20;stroke-width:0.25;stroke-linecap:butt;stroke-linejoin:miter;stroke-miterlimit:4;stroke-dasharray:10, 2, 2, 2;stroke-dashoffset:0;stroke-opacity:1"
       id="path662"
       inkscape:connector-curvature="0" /><path
       d="M 382.94515,583.64561 408.44615,619.57961"
       style="fill:none;stroke:#231f20;stroke-width:0.25;stroke-linecap:butt;stroke-linejoin:miter;stroke-miterlimit:4;stroke-dasharray:20, 2, 2, 2;stroke-dashoffset:0;stroke-opacity:1"
       id="path664"
       inkscape:connector-curvature="0" /><path
       d="M 181.60016,591.76761 214.93015,594.16761 M 181.60016,591.76761 202.89315,559.67261 M 181.60016,591.76761 181.60016,639.60061"
       style="fill:none;stroke:#231f20;stroke-width:0.40000001;stroke-linecap:butt;stroke-linejoin:miter;stroke-miterlimit:4;stroke-dasharray:5, 2;stroke-dashoffset:0;stroke-opacity:1"
       id="path666"
       inkscape:connector-curvature="0" /><path
       d="M 243.06215,678.15161 225.41515,653.02561"
       style="fill:none;stroke:#231f20;stroke-width:0.25;stroke-linecap:butt;stroke-linejoin:miter;stroke-miterlimit:4;stroke-dasharray:7.5, 2, 2, 2;stroke-dashoffset:0;stroke-opacity:1"
       id="path668"
       inkscape:connector-curvature="0" /><path
       d="M 230.85715,663.23661 C 217.39115,672.39961 203.61715,675.38961 199.69415,669.86161 195.65215,664.16561 203.60115,651.58061 217.44915,641.75361 231.29716,631.92561 245.80015,628.57561 249.84315,634.27261 253.78415,639.82561 246.32815,651.92561 233.12015,661.63561"
       style="fill:none;stroke:#ffffff;stroke-width:0.5;stroke-linecap:butt;stroke-linejoin:miter;stroke-miterlimit:4;stroke-dasharray:4.7, 2;stroke-dashoffset:0;stroke-opacity:1"
       id="path670"
       inkscape:connector-curvature="0" /><path
       d="M 230.85715,663.23661 C 217.39115,672.39961 203.61715,675.38961 199.69415,669.86161 195.65215,664.16561 203.60115,651.58061 217.44915,641.75361 231.29716,631.92561 245.80015,628.57561 249.84315,634.27261 253.78415,639.82561 246.32815,651.92561 233.12015,661.63561"
       style="fill:none;stroke:#f68514;stroke-width:0.75;stroke-linecap:butt;stroke-linejoin:miter;stroke-miterlimit:4;stroke-dasharray:4.7, 2;stroke-dashoffset:0;stroke-opacity:1"
       id="path672"
       inkscape:connector-curvature="0" /><path
       d="M 420.44915,636.49261 442.95315,668.20261"
       style="fill:none;stroke:#ffffff;stroke-width:2.75;stroke-linecap:butt;stroke-linejoin:miter;stroke-miterlimit:4;stroke-dasharray:none;stroke-opacity:1"
       id="path674"
       inkscape:connector-curvature="0" /><path
       d="M 420.44915,636.49261 443.09815,668.40561"
       style="fill:none;stroke:#ffffff;stroke-width:0.5;stroke-linecap:butt;stroke-linejoin:miter;stroke-miterlimit:4;stroke-dasharray:none;stroke-opacity:1"
       id="path676"
       inkscape:connector-curvature="0" /><path
       d="M 444.24015,670.01461 C 443.00215,668.27161 441.38615,666.95661 439.58215,666.10261 M 444.24015,670.01461 C 443.00215,668.27161 442.29415,666.31261 442.08215,664.32861"
       style="fill:none;stroke:#ffffff;stroke-width:0.25;stroke-linecap:round;stroke-linejoin:miter;stroke-miterlimit:4;stroke-dasharray:none;stroke-opacity:1"
       id="path678"
       inkscape:connector-curvature="0" /><path
       d="M 420.44915,636.49261 442.95315,668.20261"
       style="fill:none;stroke:#00a770;stroke-width:0.75;stroke-linecap:butt;stroke-linejoin:miter;stroke-miterlimit:4;stroke-dasharray:none;stroke-opacity:1"
       id="path680"
       inkscape:connector-curvature="0" /><path
       d="M 444.24015,670.01461 C 443.00215,668.27161 441.38615,666.95661 439.58215,666.10261 M 444.24015,670.01461 C 443.00215,668.27161 442.29415,666.31261 442.08215,664.32861"
       style="fill:none;stroke:#00a770;stroke-width:0.5;stroke-linecap:round;stroke-linejoin:miter;stroke-miterlimit:4;stroke-dasharray:none;stroke-opacity:1"
       id="path682"
       inkscape:connector-curvature="0" /><path
       d="M 436.81615,608.82761 463.35415,601.90361"
       style="fill:none;stroke:#ffffff;stroke-width:0.5;stroke-linecap:butt;stroke-linejoin:miter;stroke-miterlimit:4;stroke-dasharray:none;stroke-opacity:1"
       id="path684"
       inkscape:connector-curvature="0" /><path
       d="M 464.86015,601.50861 C 463.23015,601.93461 461.41215,602.82861 459.58115,604.04061 M 464.86015,601.50861 C 463.23015,601.93461 461.98915,601.84261 461.16615,601.32361"
       style="fill:none;stroke:#ffffff;stroke-width:0.25;stroke-linecap:round;stroke-linejoin:miter;stroke-miterlimit:4;stroke-dasharray:none;stroke-opacity:1"
       id="path686"
       inkscape:connector-curvature="0" /><path
       d="M 436.81615,608.82761 463.16315,601.95361"
       style="fill:none;stroke:#00a770;stroke-width:0.75;stroke-linecap:butt;stroke-linejoin:miter;stroke-miterlimit:4;stroke-dasharray:none;stroke-opacity:1"
       id="path688"
       inkscape:connector-curvature="0" /><path
       d="M 464.86015,601.50861 C 463.23015,601.93461 460.75715,603.38361 458.92615,604.59461 M 464.86015,601.50861 C 463.23015,601.93461 461.24715,601.44661 460.42615,600.92861"
       style="fill:none;stroke:#00a770;stroke-width:0.5;stroke-linecap:round;stroke-linejoin:miter;stroke-miterlimit:4;stroke-dasharray:none;stroke-opacity:1"
       id="path690"
       inkscape:connector-curvature="0" /><path
       d="M 426.29015,626.77161 C 427.09115,625.40361 427.25615,624.27161 426.87715,623.42761 M 426.29015,626.77161 C 427.09115,625.40361 428.43015,623.96361 430.11415,622.57861"
       style="fill:none;stroke:#ffffff;stroke-width:0.25;stroke-linecap:round;stroke-linejoin:miter;stroke-miterlimit:4;stroke-dasharray:none;stroke-opacity:1"
       id="path692"
       inkscape:connector-curvature="0" /><path
       d="M 426.29015,626.77161 C 427.09115,625.40361 427.28315,623.50261 426.90515,622.65761 M 426.29015,626.77161 C 427.09115,625.40361 428.84815,623.73061 430.53015,622.34561"
       style="fill:none;stroke:#00a770;stroke-width:0.5;stroke-linecap:round;stroke-linejoin:miter;stroke-miterlimit:4;stroke-dasharray:none;stroke-opacity:1"
       id="path694"
       inkscape:connector-curvature="0" /><path
       d="M 436.81615,608.82761 453.58515,618.99961"
       style="fill:none;stroke:#ffffff;stroke-width:0.5;stroke-linecap:butt;stroke-linejoin:miter;stroke-miterlimit:4;stroke-dasharray:none;stroke-opacity:1"
       id="path696"
       inkscape:connector-curvature="0" /><path
       d="M 454.33415,619.45161 C 453.52315,618.96261 452.33815,618.85261 450.93715,619.06861 M 454.33415,619.45161 C 453.52315,618.96261 453.18415,618.15161 453.26615,617.13661"
       style="fill:none;stroke:#ffffff;stroke-width:0.25;stroke-linecap:round;stroke-linejoin:miter;stroke-miterlimit:4;stroke-dasharray:none;stroke-opacity:1"
       id="path698"
       inkscape:connector-curvature="0" /><path
       d="M 436.81615,608.82761 453.49115,618.94261"
       style="fill:none;stroke:#00a770;stroke-width:0.75;stroke-linecap:butt;stroke-linejoin:miter;stroke-miterlimit:4;stroke-dasharray:none;stroke-opacity:1"
       id="path700"
       inkscape:connector-curvature="0" /><path
       d="M 454.33415,619.45161 C 453.52315,618.96261 451.68215,618.87961 450.28015,619.09561 M 454.33415,619.45161 C 453.71715,618.72061 453.32415,617.60961 453.40515,616.59561"
       style="fill:none;stroke:#00a770;stroke-width:0.5;stroke-linecap:round;stroke-linejoin:miter;stroke-miterlimit:4;stroke-dasharray:none;stroke-opacity:1"
       id="path702"
       inkscape:connector-curvature="0" /><path
       d="M 436.81615,608.82761 426.98115,625.59061"
       style="fill:none;stroke:#ffffff;stroke-width:0.5;stroke-linecap:butt;stroke-linejoin:miter;stroke-miterlimit:4;stroke-dasharray:none;stroke-opacity:1"
       id="path704"
       inkscape:connector-curvature="0" /><path
       d="M 436.81615,608.82761 426.98115,625.59061"
       style="fill:none;stroke:#00a770;stroke-width:0.75;stroke-linecap:butt;stroke-linejoin:miter;stroke-miterlimit:4;stroke-dasharray:none;stroke-opacity:1"
       id="path706"
       inkscape:connector-curvature="0" /><path
       d="M 436.81615,607.32761 C 437.64515,607.32761 438.31615,607.99961 438.31615,608.82761 438.31615,609.65561 437.64515,610.32761 436.81615,610.32761 435.98815,610.32761 435.31615,609.65561 435.31615,608.82761 435.31615,607.99961 435.98815,607.32761 436.81615,607.32761"
       style="fill:#231f20;fill-opacity:1;fill-rule:nonzero;stroke:none"
       id="path708"
       inkscape:connector-curvature="0" /><path
       d="M 426.29015,626.77161 454.33415,619.45161 464.86015,601.50861"
       style="fill:none;stroke:#231f20;stroke-width:0.25;stroke-linecap:butt;stroke-linejoin:miter;stroke-miterlimit:4;stroke-dasharray:none;stroke-opacity:1"
       id="path710"
       inkscape:connector-curvature="0" /><path
       d="M 236.37815,632.41361 259.40915,626.37761"
       style="fill:none;stroke:#ffffff;stroke-width:0.5;stroke-linecap:butt;stroke-linejoin:miter;stroke-miterlimit:4;stroke-dasharray:none;stroke-opacity:1"
       id="path712"
       inkscape:connector-curvature="0" /><path
       d="M 260.91415,625.98261 C 259.28415,626.40961 257.46615,627.30261 255.63415,628.51561 M 260.91415,625.98261 C 259.28415,626.40961 258.04215,626.31661 257.22115,625.79861"
       style="fill:none;stroke:#ffffff;stroke-width:0.25;stroke-linecap:round;stroke-linejoin:miter;stroke-miterlimit:4;stroke-dasharray:none;stroke-opacity:1"
       id="path714"
       inkscape:connector-curvature="0" /><path
       d="M 236.37815,632.41361 259.21916,626.42661"
       style="fill:none;stroke:#00a770;stroke-width:0.75;stroke-linecap:butt;stroke-linejoin:miter;stroke-miterlimit:4;stroke-dasharray:none;stroke-opacity:1"
       id="path716"
       inkscape:connector-curvature="0" /><path
       d="M 260.91415,625.98261 C 259.28415,626.40961 257.46615,627.30261 255.63415,628.51561 M 260.91415,625.98261 C 259.28415,626.40961 258.04215,626.31661 257.22115,625.79861"
       style="fill:none;stroke:#00a770;stroke-width:0.5;stroke-linecap:round;stroke-linejoin:miter;stroke-miterlimit:4;stroke-dasharray:none;stroke-opacity:1"
       id="path718"
       inkscape:connector-curvature="0" /><path
       d="M 235.58115,633.77861 C 234.95015,634.83461 234.84915,636.82961 235.11715,637.57061 M 235.58115,633.77861 C 234.95015,634.83461 232.65315,636.64761 231.24215,637.82061"
       style="fill:none;stroke:#231f20;stroke-width:0.5;stroke-linecap:round;stroke-linejoin:miter;stroke-miterlimit:4;stroke-dasharray:none;stroke-opacity:1"
       id="path720"
       inkscape:connector-curvature="0" /><path
       d="M 224.76915,652.06761 235.15315,634.46561"
       style="fill:none;stroke:#231f20;stroke-width:0.75;stroke-linecap:butt;stroke-linejoin:miter;stroke-miterlimit:4;stroke-dasharray:none;stroke-opacity:1"
       id="path722"
       inkscape:connector-curvature="0" /><path
       d="M 236.40115,630.90661 C 237.23015,630.90661 237.90115,631.57861 237.90115,632.40761 237.90115,633.23561 237.23015,633.90761 236.40115,633.90761 235.57315,633.90761 234.90115,633.23561 234.90115,632.40761 234.90115,631.57861 235.57315,630.90661 236.40115,630.90661"
       style="fill:#231f20;fill-opacity:1;fill-rule:nonzero;stroke:none"
       id="path724"
       inkscape:connector-curvature="0" /><path
       d="M 181.60016,591.76761 216.45116,640.79861 M 218.42116,643.19961 224.11515,651.15261"
       style="fill:none;stroke:#231f20;stroke-width:0.25;stroke-linecap:butt;stroke-linejoin:miter;stroke-miterlimit:4;stroke-dasharray:none;stroke-opacity:1"
       id="path728"
       inkscape:connector-curvature="0" /><path
       d="M 244.25015,679.90161 258.60115,700.23161"
       style="fill:none;stroke:#ffffff;stroke-width:0.5;stroke-linecap:butt;stroke-linejoin:miter;stroke-miterlimit:4;stroke-dasharray:none;stroke-opacity:1"
       id="path730"
       inkscape:connector-curvature="0" /><path
       d="M 259.74316,701.84061 C 258.50615,700.09661 256.89015,698.78161 255.08715,697.92761 M 259.74316,701.84061 C 258.50615,700.09661 257.79815,698.13761 257.58615,696.15261"
       style="fill:none;stroke:#ffffff;stroke-width:0.25;stroke-linecap:round;stroke-linejoin:miter;stroke-miterlimit:4;stroke-dasharray:none;stroke-opacity:1"
       id="path732"
       inkscape:connector-curvature="0" /><path
       d="M 244.25015,679.90161 258.45716,700.02661"
       style="fill:none;stroke:#00a770;stroke-width:0.75;stroke-linecap:butt;stroke-linejoin:miter;stroke-miterlimit:4;stroke-dasharray:none;stroke-opacity:1"
       id="path734"
       inkscape:connector-curvature="0" /><path
       d="M 259.74316,701.84061 C 258.50615,700.09661 256.89015,698.78161 255.08715,697.92761 M 259.74316,701.84061 C 258.50615,700.09661 257.79815,698.13761 257.58615,696.15261 M 256.29315,693.69261 C 257.44715,692.52261 258.25516,691.09261 258.73315,689.47161 M 256.29315,693.69261 C 257.44715,692.52261 258.86715,691.69661 260.48116,691.19761"
       style="fill:none;stroke:#00a770;stroke-width:0.5;stroke-linecap:round;stroke-linejoin:miter;stroke-miterlimit:4;stroke-dasharray:none;stroke-opacity:1"
       id="path736"
       inkscape:connector-curvature="0" /><path
       d="M 243.82315,697.33561 C 242.45515,695.40861 245.14415,691.15261 249.82815,687.82861 254.51215,684.50461 259.41715,683.37161 260.78516,685.29861"
       style="fill:none;stroke:#ffffff;stroke-width:2.25;stroke-linecap:butt;stroke-linejoin:miter;stroke-miterlimit:4;stroke-dasharray:none;stroke-opacity:1"
       id="path738"
       inkscape:connector-curvature="0" /><path
       d="M 252.67116,696.14961 C 248.70515,698.40061 244.98515,698.97361 243.82315,697.33561 242.45515,695.40861 245.14415,691.15261 249.82815,687.82861 254.51215,684.50461 259.41715,683.37161 260.78516,685.29861 261.95116,686.94261 260.16616,690.28061 256.70915,693.28961"
       style="fill:none;stroke:#00a770;stroke-width:0.5;stroke-linecap:butt;stroke-linejoin:miter;stroke-miterlimit:4;stroke-dasharray:none;stroke-opacity:1"
       id="path740"
       inkscape:connector-curvature="0" /><path
       d="M 181.60016,591.76761 233.41415,630.10061"
       style="fill:none;stroke:#231f20;stroke-width:0.75;stroke-linecap:butt;stroke-linejoin:miter;stroke-miterlimit:4;stroke-dasharray:none;stroke-opacity:1"
       id="path742"
       inkscape:connector-curvature="0" /><path
       d="M 235.20116,631.42361 C 233.48315,630.15161 231.53715,629.40561 229.55816,629.15461 M 235.20116,631.42361 C 233.48315,630.15161 232.19915,628.51061 231.38016,626.69061"
       style="fill:none;stroke:#231f20;stroke-width:0.5;stroke-linecap:round;stroke-linejoin:miter;stroke-miterlimit:4;stroke-dasharray:none;stroke-opacity:1"
       id="path744"
       inkscape:connector-curvature="0" /><path
       d="M 181.60916,591.77561 223.47915,650.25661"
       style="fill:none;stroke:#231f20;stroke-width:0.75;stroke-linecap:butt;stroke-linejoin:miter;stroke-miterlimit:4;stroke-dasharray:none;stroke-opacity:1"
       id="path746"
       inkscape:connector-curvature="0" /><path
       d="M 224.76915,652.06761 C 223.52815,650.32661 221.90915,649.01461 220.10515,648.16361 M 224.76915,652.06761 C 223.52815,650.32661 222.81615,648.36861 222.60115,646.38461"
       style="fill:none;stroke:#231f20;stroke-width:0.5;stroke-linecap:round;stroke-linejoin:miter;stroke-miterlimit:4;stroke-dasharray:none;stroke-opacity:1"
       id="path748"
       inkscape:connector-curvature="0" /><path
       d="M 181.60016,590.26761 C 182.42816,590.26761 183.10016,590.93961 183.10016,591.76761 183.10016,592.59561 182.42816,593.26761 181.60016,593.26761 180.77116,593.26761 180.10016,592.59561 180.10016,591.76761 180.10016,590.93961 180.77116,590.26761 181.60016,590.26761"
       style="fill:#231f20;fill-opacity:1;fill-rule:nonzero;stroke:none"
       id="path750"
       inkscape:connector-curvature="0" /><path
       d="M 184.20116,585.67261 C 184.00216,585.99161 185.11515,586.83361 184.99715,586.75861 184.87815,586.68461 186.06615,587.23661 186.24615,586.94761 185.99815,587.34561 185.33816,587.38361 184.77415,587.03161 184.20915,586.67961 183.95315,586.07161 184.20116,585.67261"
       style="fill:#231f20;fill-opacity:1;fill-rule:nonzero;stroke:none"
       id="path752"
       inkscape:connector-curvature="0" /><path
       d="M 182.72416,643.23561 C 182.71515,642.89461 181.44916,642.81461 181.57616,642.81161 181.70315,642.80861 180.52616,642.98461 180.53416,643.29461 180.52316,642.86761 181.00416,642.50861 181.60916,642.49261 182.21316,642.47661 182.71316,642.80961 182.72416,643.23561"
       style="fill:#231f20;fill-opacity:1;fill-rule:nonzero;stroke:none"
       id="path754"
       inkscape:connector-curvature="0" /><path
       d="M 181.60016,643.55161 181.60016,697.29861"
       style="fill:none;stroke:#231f20;stroke-width:0.40000001;stroke-linecap:butt;stroke-linejoin:miter;stroke-miterlimit:4;stroke-dasharray:5, 2;stroke-dashoffset:0;stroke-opacity:1"
       id="path756"
       inkscape:connector-curvature="0" /><path
       d="M 263.32616,655.36161 C 254.99215,655.36161 248.49715,655.53261 233.65815,664.69561"
       style="fill:none;stroke:#231f20;stroke-width:0.25;stroke-linecap:butt;stroke-linejoin:miter;stroke-miterlimit:4;stroke-dasharray:none;stroke-opacity:1"
       id="path914"
       inkscape:connector-curvature="0" /><path
       d="M 233.65815,664.69561 C 235.06115,663.83861 236.18916,662.64561 237.04415,661.18761 M 233.65815,664.69561 C 235.06115,663.83861 236.63815,663.37961 238.32515,663.28461"
       style="fill:none;stroke:#231f20;stroke-width:0.25;stroke-linecap:round;stroke-linejoin:miter;stroke-miterlimit:4;stroke-dasharray:none;stroke-opacity:1"
       id="path916"
       inkscape:connector-curvature="0" /><text
       sodipodi:linespacing="125%"
       id="text4258-1"
       y="-716.85828"
       x="270.51535"
       style="font-style:normal;font-weight:normal;font-size:32px;line-height:125%;font-family:sans-serif;letter-spacing:0px;word-spacing:0px;fill:#000000;fill-opacity:1;stroke:none;stroke-width:1px;stroke-linecap:butt;stroke-linejoin:miter;stroke-opacity:1"
       xml:space="preserve"
       transform="scale(1,-1)"><tspan
         style="font-size:6px;text-align:center;text-anchor:middle"
         y="-716.85828"
         x="270.51535"
         id="tspan4260-8"
         sodipodi:role="line">$n$</tspan></text>
<text
       sodipodi:linespacing="125%"
       id="text4258-1-3"
       y="-594.90125"
       x="252.05704"
       style="font-style:normal;font-weight:normal;font-size:32px;line-height:125%;font-family:sans-serif;letter-spacing:0px;word-spacing:0px;fill:#000000;fill-opacity:1;stroke:none;stroke-width:1px;stroke-linecap:butt;stroke-linejoin:miter;stroke-opacity:1"
       xml:space="preserve"
       transform="scale(1,-1)"><tspan
         style="font-size:6px;text-align:center;text-anchor:middle"
         y="-594.90125"
         x="252.05704"
         id="tspan4260-8-6"
         sodipodi:role="line">$y$</tspan></text>
<text
       sodipodi:linespacing="125%"
       id="text4258-1-6"
       y="-553.89984"
       x="205.34091"
       style="font-style:normal;font-weight:normal;font-size:32px;line-height:125%;font-family:sans-serif;letter-spacing:0px;word-spacing:0px;fill:#000000;fill-opacity:1;stroke:none;stroke-width:1px;stroke-linecap:butt;stroke-linejoin:miter;stroke-opacity:1"
       xml:space="preserve"
       transform="scale(1,-1)"><tspan
         style="font-size:6px;text-align:center;text-anchor:middle"
         y="-553.89984"
         x="205.34091"
         id="tspan4260-8-2"
         sodipodi:role="line">$x$</tspan></text>
<text
       sodipodi:linespacing="125%"
       id="text4258-1-35"
       y="-699.64319"
       x="178.07961"
       style="font-style:normal;font-weight:normal;font-size:32px;line-height:125%;font-family:sans-serif;letter-spacing:0px;word-spacing:0px;fill:#000000;fill-opacity:1;stroke:none;stroke-width:1px;stroke-linecap:butt;stroke-linejoin:miter;stroke-opacity:1"
       xml:space="preserve"
       transform="scale(1,-1)"><tspan
         style="font-size:6px;text-align:center;text-anchor:middle"
         y="-699.64319"
         x="178.07961"
         id="tspan4260-8-4"
         sodipodi:role="line">$z$</tspan></text>
<text
       sodipodi:linespacing="125%"
       id="text4258-1-62"
       y="-557.83411"
       x="156.2982"
       style="font-style:normal;font-weight:normal;font-size:32px;line-height:125%;font-family:sans-serif;letter-spacing:0px;word-spacing:0px;fill:#000000;fill-opacity:1;stroke:none;stroke-width:1px;stroke-linecap:butt;stroke-linejoin:miter;stroke-opacity:1"
       xml:space="preserve"
       transform="scale(1,-1)"><tspan
         style="font-size:6px;text-align:center;text-anchor:middle"
         y="-557.83411"
         x="156.2982"
         id="tspan4260-8-3"
         sodipodi:role="line">$n$</tspan></text>
<text
       sodipodi:linespacing="125%"
       id="text4258-1-7"
       y="-659.49567"
       x="271.7124"
       style="font-style:normal;font-weight:normal;font-size:32px;line-height:125%;font-family:sans-serif;letter-spacing:0px;word-spacing:0px;fill:#000000;fill-opacity:1;stroke:none;stroke-width:1px;stroke-linecap:butt;stroke-linejoin:miter;stroke-opacity:1"
       xml:space="preserve"
       transform="scale(1,-1)"><tspan
         style="font-size:6px;text-align:center;text-anchor:middle"
         y="-659.49567"
         x="271.7124"
         sodipodi:role="line"
         id="tspan9265">Fixed</tspan></text>
<text
       sodipodi:linespacing="125%"
       id="text4258-94"
       y="-643.33575"
       x="231.15076"
       style="font-style:normal;font-weight:normal;font-size:32px;line-height:125%;font-family:sans-serif;letter-spacing:0px;word-spacing:0px;fill:#000000;fill-opacity:1;stroke:none;stroke-width:1px;stroke-linecap:butt;stroke-linejoin:miter;stroke-opacity:1"
       xml:space="preserve"
       transform="scale(1,-1)"><tspan
         style="font-size:6px"
         y="-643.33575"
         x="231.15076"
         id="tspan4260-7"
         sodipodi:role="line">$\boldsymbol{b}$</tspan></text>
<text
       sodipodi:linespacing="125%"
       id="text4258-94-3"
       y="-621.71118"
       x="261.60953"
       style="font-style:normal;font-weight:normal;font-size:32px;line-height:125%;font-family:sans-serif;letter-spacing:0px;word-spacing:0px;fill:#000000;fill-opacity:1;stroke:none;stroke-width:1px;stroke-linecap:butt;stroke-linejoin:miter;stroke-opacity:1"
       xml:space="preserve"
       transform="scale(1,-1)"><tspan
         style="font-size:6px"
         y="-621.71118"
         x="261.60953"
         id="tspan4260-7-7"
         sodipodi:role="line">$\boldsymbol{v=\omega\times r}$</tspan></text>
<text
       sodipodi:linespacing="125%"
       id="text4258-94-8"
       y="-609.0564"
       x="213.37323"
       style="font-style:normal;font-weight:normal;font-size:32px;line-height:125%;font-family:sans-serif;letter-spacing:0px;word-spacing:0px;fill:#000000;fill-opacity:1;stroke:none;stroke-width:1px;stroke-linecap:butt;stroke-linejoin:miter;stroke-opacity:1"
       xml:space="preserve"
       transform="scale(1,-1)"><tspan
         style="font-size:6px"
         y="-609.0564"
         x="213.37323"
         id="tspan4260-7-0"
         sodipodi:role="line">$\boldsymbol{r}$</tspan></text>
<text
       sodipodi:linespacing="125%"
       id="text4258-94-9"
       y="-625.03162"
       x="196.12859"
       style="font-style:normal;font-weight:normal;font-size:32px;line-height:125%;font-family:sans-serif;letter-spacing:0px;word-spacing:0px;fill:#000000;fill-opacity:1;stroke:none;stroke-width:1px;stroke-linecap:butt;stroke-linejoin:miter;stroke-opacity:1"
       xml:space="preserve"
       transform="scale(1,-1)"><tspan
         style="font-size:6px"
         y="-625.03162"
         x="196.12859"
         id="tspan4260-7-9"
         sodipodi:role="line">$\boldsymbol{h}$</tspan></text>
<text
       transform="scale(1,-1)"
       sodipodi:linespacing="125%"
       id="text4258-1-7-3"
       y="-650.89764"
       x="272.5358"
       style="font-style:normal;font-weight:normal;font-size:32px;line-height:125%;font-family:sans-serif;letter-spacing:0px;word-spacing:0px;fill:#000000;fill-opacity:1;stroke:none;stroke-width:1px;stroke-linecap:butt;stroke-linejoin:miter;stroke-opacity:1"
       xml:space="preserve"><tspan
         style="font-size:6px;text-align:center;text-anchor:middle"
         y="-650.89764"
         x="272.5358"
         sodipodi:role="line"
         id="tspan9265-3">axis</tspan></text>
<rect
       transform="scale(1,-1)"
       y="-630.12537"
       x="358.64404"
       height="12.584745"
       width="66.355934"
       id="rect9918"
       style="opacity:1;fill:#ffffff;fill-opacity:1;stroke:none;stroke-width:6.25;stroke-linecap:round;stroke-miterlimit:4;stroke-dasharray:none;stroke-dashoffset:0;stroke-opacity:0.52272728" /><text
       transform="scale(1,-1)"
       sodipodi:linespacing="125%"
       id="text4258-94-3-2"
       y="-618.42255"
       x="333.49731"
       style="font-style:normal;font-weight:normal;font-size:32px;line-height:125%;font-family:sans-serif;letter-spacing:0px;word-spacing:0px;fill:#000000;fill-opacity:1;stroke:none;stroke-width:5;stroke-linecap:butt;stroke-linejoin:miter;stroke-miterlimit:4;stroke-dasharray:none;stroke-opacity:0.52272728"
       xml:space="preserve"><tspan
         style="font-size:6px;fill:#000000;fill-opacity:1;stroke:none;stroke-width:5;stroke-miterlimit:4;stroke-dasharray:none;stroke-opacity:0.52272728"
         y="-618.42255"
         x="333.49731"
         id="tspan4260-7-7-8"
         sodipodi:role="line">$\boldsymbol{a}_n=\boldsymbol{\omega\times(\omega\times r)}$</tspan></text>
<text
       transform="scale(1,-1)"
       sodipodi:linespacing="125%"
       id="text4258-1-5"
       y="-703.41437"
       x="468.03735"
       style="font-style:normal;font-weight:normal;font-size:32px;line-height:125%;font-family:sans-serif;letter-spacing:0px;word-spacing:0px;fill:#000000;fill-opacity:1;stroke:none;stroke-width:1px;stroke-linecap:butt;stroke-linejoin:miter;stroke-opacity:1"
       xml:space="preserve"><tspan
         style="font-size:6px;text-align:center;text-anchor:middle"
         y="-703.41437"
         x="468.03735"
         id="tspan4260-8-60"
         sodipodi:role="line">$n$</tspan></text>
<text
       transform="scale(1,-1)"
       sodipodi:linespacing="125%"
       id="text4258-1-62-4"
       y="-576.74933"
       x="378.35919"
       style="font-style:normal;font-weight:normal;font-size:32px;line-height:125%;font-family:sans-serif;letter-spacing:0px;word-spacing:0px;fill:#000000;fill-opacity:1;stroke:none;stroke-width:1px;stroke-linecap:butt;stroke-linejoin:miter;stroke-opacity:1"
       xml:space="preserve"><tspan
         style="font-size:6px;text-align:center;text-anchor:middle"
         y="-576.74933"
         x="378.35919"
         id="tspan4260-8-3-8"
         sodipodi:role="line">$n$</tspan></text>
<text
       transform="scale(1,-1)"
       sodipodi:linespacing="125%"
       id="text10601"
       y="-687.83417"
       x="410.58502"
       style="font-style:normal;font-weight:normal;font-size:6px;line-height:125%;font-family:sans-serif;letter-spacing:0px;word-spacing:0px;fill:#000000;fill-opacity:1;stroke:none;stroke-width:1px;stroke-linecap:butt;stroke-linejoin:miter;stroke-opacity:1"
       xml:space="preserve"><tspan
         y="-687.83417"
         x="410.58502"
         id="tspan10603"
         sodipodi:role="line" /></text>
<text
       transform="scale(1,-1)"
       sodipodi:linespacing="125%"
       id="text10605"
       y="-685.94653"
       x="409.23676"
       style="font-style:normal;font-weight:normal;font-size:6px;line-height:125%;font-family:sans-serif;letter-spacing:0px;word-spacing:0px;fill:#000000;fill-opacity:1;stroke:none;stroke-width:1px;stroke-linecap:butt;stroke-linejoin:miter;stroke-opacity:1"
       xml:space="preserve"><tspan
         y="-685.94653"
         x="409.23676"
         id="tspan10607"
         sodipodi:role="line" /></text>
<text
       transform="scale(1,-1)"
       sodipodi:linespacing="125%"
       id="text10609"
       y="-652.16724"
       x="436.81464"
       style="font-style:normal;font-weight:normal;font-size:6px;line-height:125%;font-family:sans-serif;letter-spacing:0px;word-spacing:0px;fill:#000000;fill-opacity:1;stroke:none;stroke-width:1px;stroke-linecap:butt;stroke-linejoin:miter;stroke-opacity:1"
       xml:space="preserve"><tspan
         y="-652.16724"
         x="436.81464"
         id="tspan10611"
         sodipodi:role="line">$\boldsymbol{\dot{\omega}=\alpha}$</tspan></text>
<text
       transform="scale(1,-1)"
       sodipodi:linespacing="125%"
       id="text10613"
       y="-618.71155"
       x="455.96045"
       style="font-style:normal;font-weight:normal;font-size:6px;line-height:125%;font-family:sans-serif;letter-spacing:0px;word-spacing:0px;fill:#000000;fill-opacity:1;stroke:none;stroke-width:1px;stroke-linecap:butt;stroke-linejoin:miter;stroke-opacity:1"
       xml:space="preserve"><tspan
         y="-618.71155"
         x="455.96045"
         id="tspan10615"
         sodipodi:role="line">$\boldsymbol{a}$</tspan></text>
<text
       transform="scale(1,-1)"
       sodipodi:linespacing="125%"
       id="text10617"
       y="-597.42639"
       x="429.26416"
       style="font-style:normal;font-weight:normal;font-size:6px;line-height:125%;font-family:sans-serif;letter-spacing:0px;word-spacing:0px;fill:#000000;fill-opacity:1;stroke:none;stroke-width:1px;stroke-linecap:butt;stroke-linejoin:miter;stroke-opacity:1"
       xml:space="preserve"><tspan
         y="-597.42639"
         x="429.26416"
         id="tspan10619"
         sodipodi:role="line">$A$</tspan></text>
<text
       transform="scale(1,-1)"
       sodipodi:linespacing="125%"
       id="text4258-94-3-2-3"
       y="-592.96027"
       x="456.05719"
       style="font-style:normal;font-weight:normal;font-size:32px;line-height:125%;font-family:sans-serif;letter-spacing:0px;word-spacing:0px;fill:#000000;fill-opacity:1;stroke:none;stroke-width:1px;stroke-linecap:butt;stroke-linejoin:miter;stroke-opacity:1"
       xml:space="preserve"><tspan
         style="font-size:6px"
         y="-592.96027"
         x="456.05719"
         id="tspan4260-7-7-8-8"
         sodipodi:role="line">$\boldsymbol{a}_t=\boldsymbol{\dot{\omega}\times r}$</tspan></text>
<text
       transform="scale(1,-1)"
       sodipodi:linespacing="125%"
       id="text10617-7"
       y="-633.01733"
       x="238.35193"
       style="font-style:normal;font-weight:normal;font-size:6px;line-height:125%;font-family:sans-serif;letter-spacing:0px;word-spacing:0px;fill:#000000;fill-opacity:1;stroke:none;stroke-width:1px;stroke-linecap:butt;stroke-linejoin:miter;stroke-opacity:1"
       xml:space="preserve"><tspan
         y="-633.01733"
         x="238.35193"
         id="tspan10619-5"
         sodipodi:role="line">$A$</tspan></text>
<path
       style="fill:url(#radialGradient9917);fill-rule:evenodd;stroke:none;stroke-width:0.80000001px;stroke-linecap:butt;stroke-linejoin:miter;stroke-opacity:1;fill-opacity:1"
       d="M 298.94605,569.99303 C 289.93484,567.70007 275.52989,561.76359 271.17114,550.3079 267.21306,539.90528 259.84545,535.20698 259.03648,517.1398 258.22749,499.07262 255.26125,494.48841 265.23864,485.85931 276.3727,476.22985 293.82253,488.82557 301.91231,497.72433 310.00209,506.62309 304.53402,501.96372 317.01323,512.82525 331.57484,525.49924 333.64715,537.8591 331.30519,547.34165 328.40471,559.08562 335.07778,560.92328 323.75472,571.34133 314.82477,579.55755 312.57264,573.4604 298.94605,569.99303 Z"
       id="path9901"
       inkscape:connector-curvature="0"
       sodipodi:nodetypes="sssssssss" /><ellipse
       style="opacity:1;fill:none;fill-opacity:1;stroke:#d45500;stroke-width:0.8;stroke-linecap:square;stroke-miterlimit:4;stroke-dasharray:3.2,3.2;stroke-dashoffset:0;stroke-opacity:1"
       id="path9919"
       cx="616.46606"
       cy="-102.21059"
       transform="matrix(0.62584315,0.77994894,0.77994894,-0.62584315,0,0)"
       rx="13.338585"
       ry="25.203596" /><path
       style="fill:none;fill-rule:evenodd;stroke:#000000;stroke-width:0.28346458;stroke-linecap:butt;stroke-linejoin:miter;stroke-miterlimit:4;stroke-dasharray:1.1338583,2.2677166;stroke-dashoffset:0;stroke-opacity:1"
       d="M 269.45697,496.80187 339.49119,590.06129"
       id="path9921"
       inkscape:connector-curvature="0" /><path
       inkscape:connector-curvature="0"
       id="path9923"
       d="M 250.33264,472.00972 263.02127,488.3832"
       style="fill:none;fill-rule:evenodd;stroke:#000000;stroke-width:0.28570291;stroke-linecap:butt;stroke-linejoin:miter;stroke-miterlimit:4;stroke-dasharray:1.14281162, 2.28562324;stroke-dashoffset:0;stroke-opacity:1"
       sodipodi:nodetypes="cc" /></g></svg>